<svg width="117" height="19" viewBox="0 0 117 19" fill="none" xmlns="http://www.w3.org/2000/svg">
<path d="M0.605125 14.904L0.845125 14.856L0.557125 14.736L0.821125 14.688L0.509125 14.568L0.797125 14.52L0.437125 14.4L0.749125 14.352L0.389125 14.232L0.749125 14.16L0.389125 14.04L0.749125 13.992L0.389125 13.872L0.749125 13.824L0.389125 13.704L0.749125 13.656L0.389125 13.536L0.749125 13.488L0.413125 13.368L0.749125 13.32L0.413125 13.2L0.749125 13.152L0.413125 13.032L0.773125 12.984L0.413125 12.864L0.773125 12.816L0.413125 12.696L0.773125 12.648L0.437125 12.528L0.773125 12.48L0.437125 12.36L0.773125 12.312L0.437125 12.192L0.773125 12.144L0.437125 12.024L0.773125 11.952L0.461125 11.832L0.797125 11.784L0.461125 11.664L0.797125 11.616L0.461125 11.496L0.797125 11.448L0.461125 11.328L0.797125 11.28L0.461125 11.16L0.797125 11.112L0.461125 10.992L0.797125 10.944L0.461125 10.824L0.797125 10.776L0.461125 10.656L0.797125 10.608L0.485125 10.488L0.797125 10.44L0.485125 10.32L0.797125 10.272L0.485125 10.152L0.797125 10.104L0.509125 9.984L0.821125 9.912L0.509125 9.816L0.821125 9.744L0.509125 9.624L0.821125 9.576L0.533125 9.456L0.845125 9.408L0.557125 9.288L0.845125 9.24L0.557125 9.12L0.845125 9.072L0.581125 8.952L0.869125 8.904L0.581125 8.784L0.869125 8.736L0.605125 8.616L0.869125 8.568L0.605125 8.448L0.893125 8.4L0.629125 8.28L0.893125 8.232L0.629125 8.112L0.893125 8.064L0.653125 7.944L0.917125 7.896L0.653125 7.776L0.917125 7.704L0.677125 7.608L0.917125 7.536L0.677125 7.416L0.917125 7.368L0.701125 7.248L0.941125 7.2L0.701125 7.08L0.941125 7.032L0.701125 6.912L0.941125 6.864L0.725125 6.744L0.941125 6.696L0.725125 6.576L0.941125 6.528L0.725125 6.408L0.941125 6.36L0.725125 6.24L0.941125 6.192L0.725125 6.072L0.941125 6.024L0.725125 5.904L0.941125 5.856L0.725125 5.736L0.941125 5.688L0.725125 5.568L0.941125 5.52L0.701125 5.4L0.941125 5.328L0.701125 5.208L0.941125 5.136L0.701125 5.016L0.941125 4.968L0.701125 4.848L0.917125 4.8L0.677125 4.68L0.917125 4.632L0.677125 4.488L0.917125 4.44L0.653125 4.32L0.893125 4.272L0.629125 4.152L0.893125 4.104L0.605125 3.96L0.869125 3.912L0.605125 3.792L0.869125 3.744L0.581125 3.6L0.869125 3.576L0.557125 3.432L0.845125 3.384L0.557125 3.264L0.845125 3.216L0.533125 3.072L0.869125 3.024L0.557125 2.88L0.893125 2.832L0.557125 2.664L0.941125 2.64L0.605125 2.4L1.06113 2.424L0.725125 2.064L1.13313 2.208L0.917125 1.8L1.34913 1.992L1.18113 1.464L1.56513 1.752V1.296L1.75713 1.584L1.82913 1.2L1.99713 1.512L2.09313 1.152L2.23713 1.464L2.35713 1.152L2.45312 1.416L2.57313 1.152L2.64513 1.392L2.76513 1.176L2.83713 1.416L2.95713 1.2L3.00513 1.416L3.12513 1.224L3.19713 1.416L3.31713 1.248L3.36513 1.44L3.48513 1.272L3.53313 1.464L3.65313 1.32L3.72513 1.464L3.84513 1.344L3.89313 1.488L4.01313 1.344L4.06113 1.488L4.18113 1.368L4.22913 1.488L4.34913 1.368L4.39713 1.512L4.54113 1.368L4.58913 1.488L4.70913 1.368L4.75713 1.488L4.87713 1.368L4.92513 1.488L5.04513 1.344L5.09313 1.488L5.21313 1.344L5.26113 1.464L5.38113 1.32L5.42913 1.464L5.54913 1.32L5.59713 1.464L5.71713 1.296L5.76513 1.44L5.90913 1.272L5.95713 1.44L6.07713 1.272L6.12513 1.44L6.24513 1.248L6.29313 1.44L6.41313 1.248L6.46113 1.416L6.58113 1.248L6.62913 1.416L6.74913 1.248L6.79713 1.416L6.91713 1.248L6.96513 1.416L7.08513 1.248L7.13313 1.416L7.25313 1.248L7.30113 1.44L7.42113 1.248L7.46913 1.44L7.58913 1.248L7.66113 1.416L7.78113 1.248L7.82913 1.416L7.94913 1.248L7.99713 1.416L8.11713 1.224L8.16513 1.416L8.28513 1.2L8.33313 1.392L8.45313 1.176L8.50113 1.368L8.62113 1.152L8.66913 1.368L8.78913 1.128L8.83713 1.344L8.95713 1.104L9.00513 1.32L9.12513 1.08L9.17313 1.32L9.29313 1.032L9.34113 1.296L9.48513 1.008L9.53313 1.272L9.65313 0.983999L9.70113 1.272L9.82113 0.959999L9.86913 1.248L9.98913 0.935999L10.0371 1.248L10.1571 0.912L10.2051 1.224L10.3251 0.912L10.3731 1.224L10.4931 0.912L10.5411 1.224L10.6611 0.912L10.7091 1.224L10.8291 0.912L10.8771 1.224L10.9971 0.912L11.0691 1.248L11.1891 0.935999L11.2371 1.248L11.3331 0.935999L11.4051 1.272L11.5251 0.959999L11.5971 1.272L11.7171 0.959999L11.7651 1.296L11.9091 0.983999L11.9571 1.296L12.1011 1.008L12.1491 1.32L12.2931 1.008L12.3411 1.32L12.5091 1.032L12.5331 1.344L12.7251 1.08L12.7491 1.392L12.9411 1.104V1.416L13.1571 1.176L13.1331 1.584L13.5651 1.296L13.4691 1.704L13.9251 1.536L13.7091 1.896L14.1891 1.8L13.9251 2.088H14.3811L14.0931 2.28L14.4771 2.304L14.1651 2.472L14.5731 2.544L14.2131 2.664L14.6451 2.784L14.2611 2.88L14.6931 3.024L14.3091 3.096L14.7171 3.24L14.3571 3.288L14.7651 3.432L14.3571 3.504L14.7891 3.648L14.3811 3.696L14.8131 3.864L14.3571 3.912L14.8371 4.104L14.3331 4.128L14.8131 4.368L14.3091 4.344L14.7891 4.632L14.2611 4.584L14.7411 4.896L14.0211 4.752L14.5251 5.424L13.8771 5.088L14.1411 5.832L13.6131 5.376L13.7571 6.12L13.3731 5.52L13.2771 6.312L13.0611 5.784L13.0131 6.384L12.8451 5.856L12.7491 6.432L12.6291 5.904L12.5091 6.456L12.4131 5.952L12.2931 6.48L12.2211 5.976L12.0771 6.48L12.0291 6.024L11.8851 6.504L11.8371 6.024L11.7171 6.504L11.6691 6.024L11.5251 6.504L11.4771 6.048L11.3571 6.504L11.3091 6.048L11.1891 6.48L11.1411 6.024L11.0211 6.48L10.9731 6.024L10.8531 6.456L10.8051 6L10.6851 6.432L10.6131 6L10.4931 6.408L10.4451 5.976L10.3251 6.384L10.2771 5.952L10.1571 6.36L10.1091 5.928L9.98913 6.312L9.94113 5.928L9.82113 6.264L9.77313 5.904L9.65313 6.24L9.60513 5.88L9.48513 6.192L9.43713 5.856L9.31713 6.168L9.24513 5.832L9.12513 6.12L9.07713 5.808L8.95713 6.072L8.90913 5.784L8.78913 6.048L8.74113 5.76L8.62113 6L8.57313 5.736L8.45313 5.976L8.40513 5.712L8.26113 5.928L8.21313 5.688L8.09313 5.904L8.04513 5.688L7.92513 5.88L7.87713 5.688L7.78113 5.856L7.70913 5.688L7.61313 5.856L7.54113 5.688L7.44513 5.856L7.37313 5.712L7.30113 5.856L7.22913 5.736L7.15713 5.904L7.06113 5.76L7.01313 5.928L6.94113 5.832L6.89313 6L6.79713 5.904V6.048L6.70113 5.976L6.72513 6.144L6.62913 6.072L6.65313 6.216L6.55713 6.168L6.62913 6.312L6.50912 6.288L6.60513 6.408H6.48513L6.60513 6.504L6.41313 6.528L6.60513 6.672L6.43713 6.72L6.62913 6.816L6.53313 6.84L6.65313 6.864L6.48513 6.984L6.74913 7.008L6.65313 7.08L6.74913 7.056L6.65313 7.2L6.86913 7.128L6.77313 7.296L6.96513 7.2L6.91713 7.44L7.15713 7.224V7.44L7.30113 7.248L7.32513 7.44L7.44513 7.248L7.46913 7.464L7.58913 7.248L7.61313 7.488L7.73313 7.224L7.78113 7.488L7.90113 7.224L7.94913 7.488L8.06913 7.2L8.11713 7.488L8.23713 7.2L8.30913 7.488L8.42913 7.2L8.47713 7.464L8.59713 7.176L8.64513 7.464L8.78913 7.176L8.83713 7.464L8.95713 7.176L9.00513 7.464L9.12513 7.176L9.17313 7.464L9.29313 7.152L9.34113 7.464L9.46113 7.152L9.50913 7.464L9.62913 7.152L9.70113 7.464L9.82113 7.152L9.86913 7.464L9.98913 7.152L10.0371 7.44L10.1571 7.152L10.2051 7.44L10.3251 7.152L10.3731 7.44L10.4931 7.152L10.5411 7.44L10.6851 7.152L10.7331 7.44L10.8531 7.152L10.9011 7.44L11.0211 7.152L11.0691 7.464L11.1891 7.152L11.2371 7.44L11.3571 7.152L11.4051 7.464L11.5491 7.152L11.5971 7.464L11.7411 7.152L11.7651 7.464L11.9331 7.152L11.9571 7.488L12.1251 7.152L12.1491 7.512L12.3411 7.176V7.536L12.5571 7.224L12.5331 7.584L12.7731 7.272L12.7011 7.776L13.2291 7.416L13.0131 7.92L13.5651 7.728L13.2291 8.136L13.8771 8.064L13.4211 8.424L14.0451 8.544L13.6851 8.712L14.1171 8.76L13.7331 8.904L14.1891 9L13.7811 9.096L14.2131 9.216L13.8291 9.288L14.2611 9.432L13.8531 9.48L14.2851 9.624L13.8771 9.696L14.3091 9.84L13.8531 9.888L14.3091 10.056L13.8051 10.08L14.3091 10.32L13.7571 10.296L14.2611 10.608L13.6851 10.536L14.1891 10.92L13.6371 10.776L14.0691 11.208L13.3971 10.944L13.8051 11.664L13.2051 11.232L13.3971 12L12.9651 11.424L13.0131 12.24L12.6531 11.568L12.5331 12.384L12.3891 11.832L12.2931 12.432L12.1731 11.856L12.0531 12.48L11.9571 11.904L11.8371 12.504L11.7411 11.952L11.5971 12.528L11.5491 11.976L11.4051 12.552L11.3571 12L11.2131 12.552L11.1411 12.024L11.0211 12.552L10.9731 12.048L10.8531 12.576L10.8051 12.048L10.6611 12.576L10.6131 12.024L10.4931 12.552L10.4451 12.024L10.3011 12.552L10.2531 12.024L10.1331 12.528L10.0851 12.024L9.96513 12.528L9.89313 12L9.77313 12.504L9.72513 12L9.60513 12.48L9.55713 11.976L9.41313 12.456L9.36513 11.952L9.24513 12.408L9.19713 11.952L9.05313 12.384L9.00513 11.928L8.88513 12.36L8.83713 11.904L8.71713 12.336L8.64513 11.88L8.52513 12.288L8.47713 11.856L8.33313 12.264L8.28513 11.856L8.16513 12.216L8.11713 11.832L7.99713 12.192L7.94913 11.832L7.82913 12.144L7.78113 11.808L7.68513 12.12L7.63713 11.808L7.54113 12.096L7.49313 11.808L7.42113 12.072L7.34913 11.808L7.27713 12.048L7.20513 11.832L7.18113 12.048L7.06113 11.832L7.03713 12.048L6.94113 11.88V12.024V12.072L6.86913 11.976L6.70113 11.856L6.79713 12.192L6.62913 12.12L6.70113 12.264L6.62913 12.24L6.70113 12.312L6.50912 12.288L6.67713 12.408L6.46113 12.432L6.65313 12.552L6.43713 12.6L6.65313 12.696L6.46113 12.744L6.67713 12.816L6.50912 12.888L6.70113 12.936L6.50912 13.056L6.74913 13.08L6.70113 13.128L6.62913 13.224L6.84513 13.128L6.79713 13.296L6.94113 13.176L6.91713 13.344L7.03713 13.2V13.392L7.15713 13.224V13.416L7.27713 13.224L7.30113 13.44L7.42113 13.224L7.46913 13.44L7.58913 13.2L7.63713 13.44L7.73313 13.176L7.80513 13.44L7.92513 13.152L7.97313 13.416L8.09313 13.128L8.14113 13.416L8.28513 13.104L8.33313 13.368L8.45313 13.08L8.50113 13.368L8.62113 13.056L8.66913 13.344L8.78913 13.032L8.83713 13.344L8.95713 13.008L9.00513 13.32L9.14913 12.984L9.19713 13.32L9.31713 12.984L9.36513 13.32L9.48513 12.96L9.53313 13.32L9.65313 12.96L9.70113 13.32L9.82113 12.96L9.86913 13.32L9.98913 12.96L10.0371 13.32L10.1571 12.984L10.2051 13.32L10.3251 12.984L10.3731 13.344L10.4931 13.008L10.5411 13.344L10.6611 13.032L10.7091 13.344L10.8291 13.032L10.8771 13.368L10.9971 13.056L11.0451 13.368L11.1651 13.08L11.2371 13.392L11.3571 13.104L11.4051 13.392L11.5251 13.128L11.5731 13.416L11.6931 13.128L11.7411 13.44L11.8611 13.152L11.9091 13.44L12.0291 13.176L12.1011 13.44L12.2211 13.176L12.2691 13.44L12.4131 13.176L12.4611 13.464L12.6051 13.2L12.6291 13.464L12.7971 13.2L12.8211 13.488L12.9891 13.224L13.0131 13.512L13.2051 13.272V13.656L13.6131 13.344L13.5411 13.752L13.9731 13.536L13.8051 13.92L14.3091 13.8L14.0451 14.112L14.5011 14.136L14.2131 14.328L14.6211 14.4L14.2851 14.568L14.6931 14.664L14.3571 14.784L14.7411 14.928L14.4051 15.024L14.7891 15.168L14.4531 15.24L14.8131 15.384L14.4771 15.432L14.8131 15.576L14.5011 15.648L14.8371 15.792L14.4771 15.84L14.8371 16.008L14.4771 16.056L14.8371 16.224L14.4531 16.248L14.8131 16.464H14.4291L14.7651 16.68L14.2611 16.656L14.6691 17.16L14.1651 17.04L14.4291 17.544L13.9731 17.304L14.1411 17.88L13.7571 17.52V18.096L13.5411 17.712L13.5171 18.192L13.3011 17.784L13.2291 18.288L13.0611 17.856L12.9411 18.36L12.8451 17.928L12.7251 18.408L12.6291 18L12.5091 18.432L12.4371 18.024L12.3171 18.456L12.2451 18.048L12.1011 18.504L12.0531 18.072L11.9091 18.528L11.8611 18.096L11.7171 18.528L11.6691 18.096L11.5251 18.552L11.5011 18.12L11.3571 18.576L11.3091 18.12L11.1651 18.576L11.1171 18.144L10.9971 18.6L10.9491 18.144L10.8051 18.624L10.7571 18.168L10.6371 18.624L10.5891 18.168L10.4691 18.624L10.4211 18.168L10.3011 18.648L10.2531 18.168L10.1331 18.648L10.0851 18.192L9.96513 18.648L9.91713 18.192L9.79713 18.648L9.74913 18.192L9.62913 18.648L9.58113 18.192L9.46113 18.648L9.41313 18.192L9.29313 18.648L9.24513 18.192L9.12513 18.648L9.07713 18.192L8.95713 18.648L8.90913 18.192L8.78913 18.672L8.74113 18.192L8.62113 18.672L8.57313 18.192L8.45313 18.672L8.40513 18.192L8.28513 18.672L8.23713 18.192L8.11713 18.672L8.06913 18.192L7.94913 18.696L7.90113 18.216L7.78113 18.696L7.73313 18.216L7.61313 18.696L7.56513 18.216L7.44513 18.72L7.39713 18.24L7.27713 18.72L7.22913 18.24L7.10913 18.744L7.06113 18.24L6.94113 18.768L6.89313 18.264L6.77313 18.768L6.72513 18.264L6.60513 18.792L6.55713 18.264L6.43713 18.792L6.38913 18.264L6.26913 18.792L6.22113 18.264L6.10113 18.792L6.05313 18.264L5.93313 18.792L5.88513 18.264L5.76513 18.792L5.71713 18.264L5.59713 18.792L5.54913 18.264L5.42913 18.792L5.38113 18.264L5.26113 18.768L5.21313 18.24L5.09313 18.768L5.04513 18.24L4.92513 18.744L4.87713 18.24L4.75713 18.72L4.70913 18.216L4.58913 18.72L4.54113 18.216L4.42113 18.696L4.37313 18.216L4.25313 18.672L4.20513 18.168L4.08513 18.648L4.01313 18.168L3.89313 18.624L3.84513 18.144L3.72513 18.6L3.65313 18.12L3.53313 18.6L3.48513 18.12L3.34113 18.576L3.29313 18.096L3.14913 18.528L3.10113 18.072L2.95713 18.504L2.90913 18.048L2.74113 18.48L2.71713 18L2.52513 18.432V17.976L2.33313 18.36V17.928L2.11713 18.312L2.14113 17.736L1.70913 18.192L1.78113 17.664L1.37313 18L1.51713 17.664L1.22913 17.88L1.44513 17.376L0.869125 17.544L1.25313 17.16L0.677125 17.064L1.01313 16.872L0.605125 16.8L0.965125 16.632L0.581125 16.536L0.917125 16.44L0.581125 16.32L0.893125 16.224L0.581125 16.08L0.893125 16.032L0.581125 15.888L0.893125 15.84L0.605125 15.696L0.893125 15.648L0.629125 15.504L0.893125 15.456L0.629125 15.312L0.893125 15.264L0.653125 15.144L0.773125 15.12L0.653125 15.096L0.893125 15.048L0.605125 14.904ZM18.4369 17.544L18.5809 17.28L18.1969 17.544L18.3889 17.208L17.9809 17.52L18.1969 17.136L17.7409 17.496L18.0049 17.064L17.5009 17.448L17.8369 16.944L17.3329 17.304L17.6929 16.824L17.1889 17.16L17.5489 16.68L17.0449 16.992L17.4289 16.536L16.9009 16.824L17.2849 16.368L16.7569 16.656L17.1649 16.224L16.6369 16.464L17.0449 16.056L16.5169 16.272L16.9249 15.888L16.3969 16.08L16.7569 15.768L16.3249 15.936L16.7329 15.576L16.2049 15.744L16.6609 15.36L16.0849 15.504L16.5409 15.192L16.0129 15.288L16.4449 15.024L15.9409 15.072L16.3729 14.832L15.8929 14.88L16.3249 14.664H15.8689L16.2769 14.472H15.8449L16.2529 14.304L15.8209 14.28L16.2049 14.112L15.8209 14.088L16.2049 13.944L15.8209 13.896L16.1809 13.752L15.8449 13.704L16.1809 13.584L15.8449 13.512L16.1569 13.392L15.8689 13.32L16.1569 13.224L15.8929 13.152L16.1569 13.056L15.9169 12.96L16.1809 12.864L15.9409 12.792L16.1809 12.696L15.9649 12.6L16.1809 12.528L15.9889 12.432L16.2049 12.36L16.0129 12.24L16.2049 12.168L16.0609 12.048L16.2289 12L16.0849 11.856L16.2529 11.808L16.1329 11.664L16.2769 11.616L16.1809 11.496L16.3249 11.448L16.2289 11.328L16.3489 11.28L16.2769 11.136L16.3969 11.112L16.3249 10.968L16.4209 10.944L16.3489 10.8L16.4689 10.776L16.3969 10.632L16.4929 10.608L16.4209 10.464L16.5409 10.44L16.4689 10.296L16.5649 10.272L16.4929 10.128L16.6129 10.104L16.5409 9.96L16.6369 9.936L16.5649 9.792L16.6849 9.768L16.6129 9.624L16.7089 9.6L16.6369 9.432H16.7569L16.6849 9.264H16.8049L16.7089 9.096H16.8529L16.7569 8.928H16.8769L16.7809 8.76H16.9249L16.8289 8.568H16.9729L16.8529 8.4H17.0209L16.8769 8.208L17.0689 8.232L16.9249 8.04L17.1169 8.064L16.9489 7.848L17.1649 7.896L16.9969 7.632L17.2369 7.704L17.0689 7.44L17.3329 7.536L17.1409 7.224L17.4529 7.368L17.2849 6.984L17.5729 7.2L17.4529 6.792L17.7169 7.008L17.5729 6.624L17.8369 6.864L17.7169 6.48L17.9809 6.744L17.8849 6.336L18.1249 6.624L18.0289 6.216L18.2689 6.504L18.1729 6.096L18.4129 6.408L18.3409 6L18.5809 6.312L18.4849 5.904L18.7249 6.216L18.6529 5.808L18.8929 6.144L18.8209 5.736L19.0369 6.048L18.9889 5.64L19.2049 5.976L19.1569 5.568L19.3729 5.904L19.3249 5.496L19.5169 5.832L19.4929 5.448L19.6849 5.76L19.6609 5.376L19.8529 5.688L19.8289 5.304L20.0209 5.616L19.9729 5.232L20.1649 5.568L20.1409 5.16L20.3329 5.496L20.3089 5.088L20.5009 5.424L20.4769 4.992L20.6689 5.352L20.6449 4.92L20.8129 5.256L20.7889 4.824L21.0289 5.28L21.0529 4.704L21.2689 5.232L21.3649 4.608L21.4849 5.112L21.6049 4.536L21.6769 5.04L21.8449 4.512L21.8689 5.016L22.0369 4.464L22.0609 4.992L22.2529 4.416V4.968L22.4449 4.392V4.944L22.6369 4.368V4.944L22.8289 4.368L22.8049 4.944L23.0209 4.344L22.9969 4.944L23.2129 4.344L23.1649 4.968L23.4049 4.368L23.3569 4.992L23.5729 4.392L23.5249 5.016L23.7649 4.416L23.6929 5.04L23.9329 4.44L23.8609 5.088L24.1249 4.488L24.0289 5.112L24.2929 4.536L24.2209 5.16L24.4609 4.608L24.3889 5.208L24.6289 4.656L24.5569 5.256L24.7969 4.728L24.7249 5.304L24.9649 4.8L24.8929 5.376L25.1329 4.848L25.0609 5.424L25.3009 4.92L25.2049 5.472L25.4689 4.992L25.3729 5.544L25.6369 5.064L25.5409 5.592L25.8049 5.136L25.7089 5.664L25.9729 5.208L25.8769 5.712L26.1409 5.28L26.0449 5.784L26.3089 5.352L26.2129 5.832L26.4529 5.424L26.3569 5.904L26.6209 5.496L26.5249 5.976L26.7889 5.568L26.6929 6.024L26.9569 5.64L26.8609 6.096L27.1249 5.712L27.0289 6.192L27.2929 5.808L27.1729 6.264L27.4369 5.904L27.3409 6.336L27.6049 6L27.5089 6.432L27.7729 6.12L27.6529 6.528L27.9169 6.24L27.7969 6.624L28.0849 6.36L27.9649 6.744L28.2529 6.504L28.1089 6.888L28.4209 6.672L28.2529 7.032L28.5889 6.864L28.3969 7.176L28.7329 7.08L28.5649 7.344L28.8289 7.272L28.6609 7.488L28.9489 7.464L28.7809 7.656H29.0209L28.8769 7.848H29.1169L28.9969 8.016L29.1889 8.04L29.0689 8.184L29.2609 8.232L29.1649 8.376L29.3329 8.448L29.2609 8.568L29.4049 8.664L29.3329 8.784L29.4529 8.88L29.3809 8.976L29.4769 9.096L29.4289 9.192L29.4769 9.312L29.4529 9.384V9.408L29.4769 9.528L29.4049 9.624L29.4529 9.408H29.4289L29.4529 9.384L29.4289 9.408L29.3329 9.84L29.2609 9.936L29.3569 9.72L29.2369 9.96L28.9969 10.104L28.9729 10.128L28.8049 10.176L28.7809 10.2H28.6369L28.5889 10.224L28.7329 10.248L28.7809 10.2L28.9249 10.176L28.9729 10.128L29.1169 10.08L28.9249 10.176H28.9489L28.7569 10.248H28.7089H28.7329L28.5649 10.296H28.5409L28.3969 10.32H28.3729H28.3489L28.1569 10.344H27.9649H27.8209H27.7969H27.7729H27.6529H27.6289H27.5809H27.4609H27.4369H27.4129H27.2929H27.2689H27.2209H27.1009H27.0769H27.0529H26.9329H26.9089H26.8609H26.7649H26.7169H26.6929H26.5729H26.5489H26.5249H26.4049H26.3809H26.3329H26.1649H26.0209H26.0449H25.8529H25.6609H25.6849H25.6369H25.6129L25.4929 10.32H25.5169H25.4689H25.4449H25.3009H25.2769L25.3249 10.296H25.2289H25.1089H25.1329L25.2769 10.32H25.3009H25.3249H25.2769L25.1329 10.296H25.1569H25.1089L25.0369 10.272L24.8689 10.248H24.8449L24.7009 10.224L24.6529 10.176L24.5329 10.152L24.4849 10.128L24.3649 10.08L24.3409 10.032L24.1969 10.008L24.1729 9.96L24.0529 9.912L24.0289 9.864L23.9089 9.84L23.8849 9.792L23.7649 9.744L23.7409 9.696L23.5969 9.672L23.5729 9.6L23.3329 9.552L23.3089 9.504L23.1169 9.552L23.0689 9.48L22.8769 9.552L22.8529 9.504L22.7569 9.624L22.6609 9.576L22.4929 9.744H22.4449L22.3969 9.936L22.3009 9.912V10.08H22.2289L22.2529 10.224H22.1569L22.2049 10.392H22.1089L22.1569 10.536L22.0609 10.56L22.1329 10.728L22.0369 10.752L22.1329 10.896L22.0129 10.944L22.1329 11.088L22.0129 11.136L22.1329 11.28L22.0129 11.328L22.1329 11.448L22.0129 11.496L22.1569 11.616L22.0129 11.664L22.1569 11.808L22.0129 11.856L22.1809 12L22.0369 12.048L22.2049 12.168L22.0369 12.24L22.2049 12.36L22.0609 12.408L22.2529 12.528L22.0849 12.576L22.2769 12.696L22.1329 12.768L22.3249 12.84L22.1809 12.936L22.3729 13.008L22.2289 13.08L22.4449 13.152L22.2529 13.272L22.5169 13.344L22.3969 13.464L22.6609 13.44L22.5649 13.608L22.7809 13.536L22.7329 13.68L22.9249 13.536V13.752L23.0689 13.584L23.0929 13.704L23.1649 13.512L23.2609 13.68L23.3089 13.44L23.4049 13.608V13.344L23.5489 13.536L23.5249 13.248L23.6929 13.464L23.6449 13.152L23.8369 13.368L23.7889 13.032L24.0049 13.272L23.9569 12.912L24.1729 13.176L24.1489 12.768L24.3649 13.104V12.648L24.5569 13.008L24.5809 12.552L24.7489 12.912L24.7969 12.48L24.9409 12.864L25.0129 12.432L25.1329 12.816L25.2049 12.384L25.3249 12.768L25.4209 12.36L25.5169 12.744L25.6369 12.36L25.7089 12.744L25.8289 12.36L25.9009 12.72L26.0209 12.36L26.0689 12.72L26.2129 12.384L26.2609 12.744L26.3809 12.408L26.4289 12.72L26.5489 12.408L26.5969 12.744L26.7169 12.432L26.7889 12.744L26.9089 12.456L26.9569 12.768L27.0769 12.48L27.1249 12.768L27.2449 12.504L27.2929 12.792L27.4129 12.528L27.4609 12.792L27.5809 12.528L27.6289 12.816L27.7489 12.552L27.7969 12.864L27.9649 12.576L28.0129 12.888L28.2049 12.6L28.2529 12.936L28.4689 12.648V12.96L28.7329 12.72L28.7089 13.032L28.9969 12.792L28.9249 13.152L29.3089 12.96L29.1649 13.272L29.5489 13.176L29.3809 13.392L29.5729 13.368L29.6689 13.296L29.6449 13.344H29.6689L29.5729 13.464L29.7649 13.392L29.5249 13.704L29.9329 13.68L29.5969 13.824L30.0049 13.968L29.5969 14.088L30.0289 14.352L29.6209 14.4L29.9809 14.712L29.5729 14.664L29.8849 15L29.5249 14.904L29.7889 15.24L29.4289 15.12L29.6929 15.432L29.3329 15.312L29.5729 15.624L29.2369 15.48L29.4529 15.792L29.1409 15.648L29.3569 15.96L29.0449 15.792L29.2129 16.128L28.9249 15.936L29.0929 16.272L28.8049 16.08L28.9729 16.416L28.6849 16.224L28.8289 16.56L28.5409 16.368L28.6849 16.704L28.4209 16.488L28.5649 16.848L28.2769 16.632L28.4209 16.992L28.1569 16.752L28.2769 17.112L28.0129 16.872L28.1329 17.256L27.8689 16.992L27.9649 17.376L27.7729 17.136L27.8689 17.448L27.5809 17.184L27.7009 17.592L27.3889 17.256L27.4849 17.736L27.2209 17.4L27.2929 17.856L27.0529 17.496L27.1009 17.928L26.8849 17.592L26.9089 18.024L26.7169 17.664V18.072L26.5489 17.736V18.12L26.3569 17.784V18.168L26.1889 17.832L26.1649 18.216L26.0209 17.88L25.9969 18.24L25.8529 17.928L25.8049 18.264L25.6609 17.952L25.6369 18.312L25.4929 18L25.4449 18.336L25.3249 18.024L25.2769 18.336L25.1329 18.048L25.0849 18.36L24.9649 18.072L24.9169 18.384L24.7969 18.096L24.7249 18.408L24.6289 18.12L24.5569 18.408L24.4369 18.144L24.3649 18.432L24.2689 18.168L24.1969 18.432L24.1009 18.192L24.0049 18.456L23.9329 18.216L23.8369 18.456L23.7409 18.216L23.6689 18.48L23.5729 18.24L23.4769 18.504L23.4049 18.264L23.2849 18.504L23.2129 18.264L23.1169 18.528L23.0449 18.288L22.9009 18.552L22.8529 18.288L22.7089 18.552L22.6609 18.288L22.5169 18.552L22.4929 18.312L22.3489 18.552L22.3009 18.288L22.1569 18.552L22.1329 18.288L21.9889 18.552L21.9649 18.288L21.7969 18.552L21.7729 18.264L21.6289 18.528L21.6049 18.264L21.4369 18.528V18.24L21.2689 18.504L21.2449 18.216L21.0769 18.48V18.192L20.9089 18.456V18.144L20.7169 18.408L20.7409 18.096L20.5489 18.36V18.072L20.3569 18.312L20.3809 18L20.1649 18.264L20.2129 17.952L19.9729 18.192L20.0209 17.904L19.8049 18.12L19.8769 17.832L19.6369 18.048L19.6849 17.76L19.4449 17.976L19.5169 17.688L19.2769 17.88L19.3489 17.592L19.1089 17.808L19.1809 17.52L18.9409 17.712L19.0369 17.424L18.7729 17.64L18.8449 17.424L18.6769 17.568L18.7729 17.328L18.4369 17.544ZM29.3089 9.936L29.1409 10.104L29.2369 10.008V9.96L29.3089 9.936ZM27.5329 10.224L27.4849 10.272L27.6049 10.32L27.6529 10.272L27.5329 10.224ZM28.4449 10.224L28.4209 10.248L28.5409 10.296L28.5889 10.224H28.4449ZM27.7009 10.224L27.6529 10.272L27.7729 10.32L27.8209 10.272L27.7009 10.224ZM27.3409 10.224L27.2929 10.272L27.4129 10.32L27.4849 10.272L27.3409 10.224ZM27.8689 10.224L27.8209 10.272L27.9649 10.32L28.0369 10.272L27.8689 10.224ZM27.1729 10.224L27.1249 10.272L27.2449 10.32L27.2929 10.272L27.1729 10.224ZM28.0609 10.224L28.0369 10.272L28.1569 10.32L28.2289 10.272L28.0609 10.224ZM28.2529 10.224L28.2289 10.272L28.3489 10.32L28.4209 10.248L28.2529 10.224ZM26.9809 10.248L26.9329 10.296L27.0769 10.32L27.1249 10.272L26.9809 10.248ZM26.8129 10.248L26.7649 10.296L26.8849 10.344L26.9329 10.296L26.8129 10.248ZM26.6449 10.248L26.5729 10.296L26.7169 10.344L26.7649 10.296L26.6449 10.248ZM26.4529 10.248L26.4049 10.296L26.5249 10.344L26.5729 10.296L26.4529 10.248ZM26.2849 10.272L26.2129 10.296L26.3569 10.344L26.4049 10.296L26.2849 10.272ZM26.0929 10.272L26.0449 10.296L26.1649 10.344L26.2129 10.296L26.0929 10.272ZM25.9249 10.272L25.8529 10.32L25.9969 10.344L26.0449 10.296L25.9249 10.272ZM25.7329 10.296L25.6849 10.32L25.8049 10.344L25.8529 10.32L25.7329 10.296ZM25.5649 10.296L25.4929 10.32H25.6369H25.6849L25.5649 10.296ZM25.3969 10.296H25.3249L25.4449 10.32H25.4929L25.3969 10.296ZM33.4866 17.496L33.5826 17.232L33.3426 17.352L33.4146 17.112L33.1986 17.232L33.2706 16.992L33.0546 17.088L33.1266 16.872L32.9106 16.944L32.9826 16.752L32.7666 16.824L32.8386 16.632L32.6226 16.68L32.7186 16.488L32.4786 16.512L32.5746 16.32H32.3346L32.4546 16.176L32.2146 16.152L32.3586 16.008L32.1426 15.984L32.2626 15.84L32.0706 15.792L32.1906 15.696L32.0226 15.624L32.1426 15.528L31.9746 15.456L32.0946 15.36L31.9266 15.288L32.0226 15.192L31.8786 15.12L31.9746 15.024L31.8306 14.952L31.9266 14.856L31.7826 14.784L31.8786 14.688L31.7586 14.616L31.8546 14.52L31.7106 14.448L31.8066 14.352L31.6866 14.28L31.7586 14.208L31.6386 14.112L31.7106 14.04L31.6146 13.944L31.6866 13.872L31.5666 13.776L31.6386 13.704L31.5426 13.608L31.6146 13.536L31.4946 13.44L31.5666 13.368L31.4706 13.272L31.5426 13.2L31.4226 13.104L31.4946 13.032L31.3986 12.936L31.4706 12.864L31.3746 12.768L31.4226 12.696L31.3266 12.6L31.3986 12.528L31.3026 12.432L31.3746 12.36L31.2786 12.264L31.3506 12.192L31.2786 12.096L31.3266 12.024L31.2546 11.904L31.3266 11.856L31.2546 11.736L31.3026 11.688L31.2306 11.568L31.3026 11.52L31.2306 11.4L31.3026 11.328L31.2546 11.208L31.3266 11.16L31.2786 11.016L31.3506 10.968L31.3266 10.848L31.3746 10.8V10.68L31.4226 10.632V10.488L31.4706 10.464V10.32L31.5186 10.296V10.152L31.5666 10.128V9.984L31.6146 9.96V9.816L31.6626 9.792V9.672L31.7106 9.624V9.504L31.7586 9.456L31.7826 9.336L31.8306 9.288V9.168L31.8786 9.12V9L31.9266 8.952V8.832L31.9746 8.808V8.664L32.0466 8.64L32.0226 8.496L32.0946 8.472V8.328L32.1666 8.304L32.1426 8.136H32.2146L32.1906 7.968H32.2866L32.2626 7.8H32.3586L32.3106 7.632H32.4306L32.3826 7.464H32.5026L32.4546 7.272L32.5986 7.32L32.5506 7.104L32.7186 7.152L32.6706 6.912L32.8386 7.008V6.72L33.0066 6.84V6.576L33.1506 6.72V6.456L33.2946 6.6L33.3186 6.336L33.4386 6.504L33.4626 6.216L33.6066 6.408V6.096L33.7506 6.312L33.7746 6L33.9186 6.24V5.904L34.0626 6.144L34.0866 5.808L34.2306 6.072L34.2546 5.712L34.3986 6V5.64L34.5666 5.928V5.568L34.7346 5.88V5.496L34.8786 5.832L34.9026 5.448L35.0466 5.76L35.0706 5.4L35.2146 5.712L35.2386 5.352L35.4066 5.688L35.4306 5.328L35.5746 5.64L35.5986 5.28L35.7426 5.592L35.7666 5.256L35.9106 5.568L35.9346 5.232L36.0786 5.544L36.1266 5.208L36.2466 5.496L36.2946 5.184L36.4146 5.472L36.4626 5.16L36.5826 5.448L36.6546 5.136L36.7746 5.424L36.8226 5.136L36.9426 5.4L36.9906 5.112L37.1106 5.376L37.1826 5.088L37.2786 5.352L37.3506 5.064L37.4466 5.328L37.5426 5.064L37.6386 5.304L37.7106 5.04L37.8066 5.28L37.9026 5.016L37.9746 5.256L38.0706 5.016L38.1666 5.256L38.2866 4.992L38.3586 5.256L38.5026 4.992L38.5506 5.232L38.6946 4.992L38.7186 5.232L38.8626 4.992L38.9106 5.232L39.0546 4.992L39.0786 5.232L39.2226 4.992L39.2466 5.256L39.4146 4.992L39.4386 5.256L39.5826 5.016L39.6066 5.28L39.7746 5.016V5.28L39.9426 5.04L39.9666 5.304L40.1346 5.04V5.352L40.3506 5.088L40.3266 5.376L40.5186 5.112V5.424L40.7106 5.16L40.6866 5.448L40.9026 5.208L40.8786 5.496L41.0946 5.256L41.0466 5.544L41.2626 5.304L41.2386 5.592L41.4546 5.352L41.4066 5.664L41.6466 5.4L41.5746 5.712L41.8386 5.448L41.7666 5.784L42.0306 5.496L41.9346 5.832L42.2226 5.568L42.1026 5.904L42.4146 5.64L42.2946 5.976L42.6066 5.712L42.4626 6.072L42.7986 5.784L42.6306 6.144L42.9666 5.88L42.7986 6.24L43.1346 5.976L42.9666 6.336L43.3026 6.072L43.1106 6.432L43.4706 6.192L43.2546 6.552L43.6386 6.312L43.3986 6.672L43.7826 6.456L43.5426 6.792L43.9266 6.6L43.6626 6.96L44.0706 6.768L43.7586 7.152L44.2386 7.008L43.9026 7.32L44.3586 7.224L44.0226 7.488L44.4546 7.416L44.1186 7.656L44.5026 7.608L44.1906 7.824L44.5746 7.8L44.2626 7.992H44.6226L44.3106 8.16L44.6466 8.184L44.3826 8.328L44.6946 8.352L44.4306 8.496L44.7186 8.544L44.4546 8.688L44.7666 8.712L44.5026 8.856L44.7906 8.88L44.5506 9.024L44.8386 9.072L44.5986 9.192L44.8866 9.24L44.6466 9.36L44.9106 9.408L44.6946 9.528L44.9586 9.576L44.7426 9.696L45.0066 9.744L44.7906 9.864L45.0546 9.912L44.8146 10.032L45.1266 10.08L44.8626 10.176L45.1746 10.248L44.9106 10.344L45.2226 10.416L44.9586 10.512L45.2706 10.584L45.0066 10.68L45.3186 10.752L45.0546 10.872L45.3666 10.92L45.0786 11.04L45.4146 11.112L45.1266 11.208L45.4626 11.28L45.1506 11.376L45.4866 11.448L45.1746 11.544L45.5106 11.64L45.1986 11.736L45.5346 11.832L45.1986 11.904L45.5346 12.024L45.1986 12.096L45.5346 12.24L45.1746 12.288L45.5106 12.48L45.1506 12.504L45.4386 12.72H45.1266L45.3906 12.912L45.0786 12.888L45.3186 13.08H45.0306L45.2706 13.272L44.9826 13.248L45.1986 13.44L44.9346 13.416L45.1266 13.608L44.8626 13.584L45.0546 13.776L44.8146 13.752L45.0066 13.944L44.7666 13.92L44.9346 14.112L44.6946 14.088L44.8626 14.28L44.6466 14.256L44.8146 14.448L44.5746 14.424L44.7426 14.616L44.5266 14.592L44.6946 14.784L44.4546 14.76L44.6226 14.952L44.4066 14.928L44.5746 15.12L44.3346 15.096L44.5266 15.312L44.2866 15.264L44.4546 15.48L44.2146 15.432L44.4066 15.648L44.1426 15.6L44.3346 15.84L44.0706 15.768L44.2626 16.008L43.9986 15.936L44.1906 16.2L43.9026 16.104L44.0946 16.368L43.8066 16.248L43.9986 16.56L43.6866 16.416L43.8786 16.752L43.5666 16.56L43.7106 16.944L43.4226 16.728L43.5426 17.112L43.2786 16.896L43.3746 17.256L43.1346 17.016L43.2066 17.4L42.9666 17.136L43.0386 17.52L42.8226 17.256L42.8706 17.616L42.6546 17.352L42.7026 17.736L42.4866 17.448L42.5346 17.832L42.3426 17.52L42.3666 17.904L42.1746 17.616L42.1986 18L42.0066 17.688V18.072L41.8386 17.76V18.144L41.6706 17.832V18.216L41.5026 17.904V18.288L41.3346 17.952V18.36L41.1666 18.024L41.1426 18.408L40.9986 18.072L40.9746 18.456L40.8306 18.12L40.8066 18.504L40.6626 18.168L40.6386 18.552L40.4946 18.264V18.6L40.3026 18.216L40.2786 18.648L40.0866 18.24L40.0146 18.696L39.8946 18.312L39.7986 18.72L39.7026 18.36L39.6066 18.72L39.5346 18.384L39.4146 18.72L39.3426 18.384L39.2226 18.72L39.1746 18.384L39.0546 18.72L38.9826 18.384L38.8626 18.72L38.8146 18.384L38.6706 18.72L38.6226 18.384L38.5026 18.696L38.4546 18.384L38.3346 18.696L38.2866 18.384L38.1426 18.696L38.0946 18.384L37.9746 18.696L37.9266 18.384L37.7826 18.696L37.7586 18.384L37.6146 18.72L37.5666 18.384L37.4226 18.72L37.3986 18.384L37.2546 18.72L37.2306 18.36L37.0626 18.72L37.0386 18.36L36.8946 18.72L36.8706 18.36L36.7026 18.72V18.336L36.5346 18.696L36.5106 18.336L36.3426 18.696V18.312L36.1746 18.672V18.288L35.9826 18.624V18.264L35.8146 18.6V18.216L35.6466 18.552V18.192L35.4546 18.528L35.4786 18.144L35.2866 18.456V18.096L35.0946 18.408L35.1186 18.048L34.9266 18.336L34.9506 18L34.7586 18.264L34.7826 17.928L34.5666 18.192L34.6146 17.856L34.3746 18.12L34.4226 17.784L34.2066 18.024L34.2546 17.688L34.0146 17.904L34.0866 17.568L33.7986 17.784L33.8946 17.496L33.6546 17.64V17.592L33.6306 17.616L33.7266 17.352L33.4866 17.496ZM38.3106 11.76L38.7666 11.712L38.3346 11.592L38.7666 11.544L38.3586 11.448L38.7906 11.376L38.3826 11.28L38.7906 11.208L38.3826 11.136L38.7666 11.064L38.3826 10.992L38.7426 10.92L38.3346 10.848L38.6946 10.752L38.3106 10.728L38.6466 10.632L38.2866 10.608L38.5986 10.488H38.2626L38.5986 10.344L38.2146 10.368L38.5026 10.224L38.1906 10.272L38.3826 10.152L38.1666 10.2L38.2626 10.152L38.1666 10.176L38.2386 10.104L38.1666 10.152L38.2626 10.008V9.984L38.1186 10.104L38.3106 9.744L38.3346 9.672L38.1186 9.984L38.0946 10.032V10.008L38.0466 10.08V9.936L37.9506 9.696V9.96V10.032V10.008V10.032V10.056L37.9026 9.984L37.7586 9.864L37.8786 10.08L37.8546 10.056V10.08L37.4706 9.936L37.7586 10.296L37.4706 10.224L37.7106 10.416L37.4466 10.368L37.6866 10.512L37.3986 10.488L37.6386 10.632H37.3506L37.6146 10.776H37.3266L37.5906 10.92H37.2786L37.5906 11.064L37.2546 11.088L37.5666 11.208L37.2306 11.256L37.5426 11.376L37.2306 11.4L37.5186 11.544L37.2066 11.592L37.4946 11.712L37.1826 11.76L37.4946 11.88L37.1826 11.952L37.4706 12.072L37.1586 12.12L37.4466 12.24L37.1586 12.312L37.4466 12.408L37.1586 12.48L37.4466 12.576L37.1586 12.648L37.4466 12.744L37.1826 12.84L37.4466 12.912L37.1826 13.008L37.4466 13.104L37.2306 13.176L37.4706 13.248L37.2786 13.344L37.4946 13.392L37.3266 13.488H37.5426L37.3986 13.608L37.5906 13.584L37.4466 13.704L37.6386 13.68L37.6146 13.728L37.6626 13.704L37.5426 13.968L37.8786 13.824L37.8546 13.92L37.9266 13.872V14.064L38.0706 13.848L38.1186 14.064L38.2146 13.848L38.2386 13.896V13.8L38.4306 14.064L38.4546 13.728L38.4306 13.656L38.5986 13.752L38.4786 13.56L38.6466 13.632L38.5026 13.464L38.7186 13.512L38.5266 13.344L38.7426 13.392L38.5506 13.224L38.7666 13.248L38.5266 13.104H38.7906L38.5266 12.96H38.8146L38.5026 12.816H38.8146L38.4786 12.672L38.8146 12.648L38.4546 12.504L38.8146 12.48L38.4066 12.336L38.8146 12.312L38.3826 12.168L38.7906 12.144L38.3346 12L38.4786 11.976L38.2866 11.952L38.7906 11.904L38.3106 11.76ZM48.3803 14.64L48.7403 14.592L48.2843 14.472L48.6923 14.424L48.2123 14.304L48.6443 14.256L48.1163 14.136L48.5963 14.088L48.0203 13.968L48.5723 13.92L48.0203 13.8L48.5723 13.728L48.0203 13.608L48.5723 13.56L48.0443 13.44L48.5723 13.392L48.0443 13.272L48.5963 13.224L48.0443 13.104L48.5963 13.056L48.0683 12.936L48.5963 12.888L48.0923 12.768L48.6203 12.72L48.1163 12.6L48.6203 12.552L48.1403 12.408L48.6443 12.36L48.1643 12.24L48.6683 12.192L48.1883 12.072L48.6923 12.024L48.2123 11.904L48.6923 11.856L48.2603 11.736L48.7163 11.688L48.3083 11.568L48.7403 11.52L48.3563 11.4L48.7883 11.352L48.3803 11.232L48.8123 11.16L48.4283 11.04L48.8363 10.992L48.4763 10.872L48.8603 10.824L48.5243 10.704L48.8843 10.656L48.5723 10.536L48.9083 10.488L48.6203 10.368L48.9323 10.32L48.6683 10.2L48.9563 10.152L48.7163 10.032L48.9803 9.96L48.7403 9.84L49.0043 9.792L48.7883 9.672L49.0283 9.624L48.8123 9.504L49.0523 9.456L48.8363 9.336L49.0523 9.288L48.8603 9.168L49.0763 9.12L48.8843 9L49.0763 8.952L48.9083 8.832L49.1003 8.784L48.9083 8.64L49.1003 8.592L48.9323 8.448L49.1003 8.4L48.9323 8.28L49.1243 8.208L48.9563 8.088L49.1243 8.04L48.9563 7.92L49.1243 7.848L48.9803 7.728L49.1483 7.68L48.9803 7.56L49.1483 7.488L49.0043 7.368L49.1483 7.32L49.0043 7.2L49.1483 7.128L49.0283 7.032L49.1483 6.96L49.0283 6.864L49.1243 6.792L49.0043 6.696L49.1003 6.6L48.9803 6.528L49.0283 6.432L48.9563 6.36V6.312L48.8363 6.264V6.144L48.5963 6.072L48.5723 6.024H48.4283L48.3803 5.976H48.2363L48.1643 5.928H48.0683L47.9723 5.904L47.9003 5.88H47.7803L47.6603 5.856H47.4923L47.3243 5.88H47.1563H46.9883H46.7963H46.8203H46.5803H46.6523L46.3643 5.904L46.1723 5.928H46.1483L46.0043 5.952L45.9803 5.928L45.7883 5.976L45.7403 5.928L45.5243 5.976L45.4763 5.856H45.1883L45.1643 5.76L44.9963 5.784V5.712L44.8763 5.736L44.9243 5.664L44.8523 5.64L44.7803 5.664L44.8043 5.64L44.8523 5.544L44.6603 5.496L44.7563 5.376L44.5163 5.28L44.6603 5.136L44.4683 4.944L44.5883 4.872L44.4203 4.752L44.5643 4.68L44.3963 4.536L44.5403 4.488L44.3723 4.344L44.5163 4.296L44.3483 4.152L44.4923 4.104L44.3243 3.984L44.4683 3.912L44.3003 3.792L44.4683 3.744L44.2763 3.624L44.4443 3.576L44.2523 3.456L44.4443 3.408L44.2283 3.264L44.4443 3.216L44.2283 3.072L44.4443 3.048L44.2283 2.88L44.4443 2.856L44.2283 2.688L44.4683 2.664L44.2523 2.448H44.5643L44.3243 2.136L44.6603 2.232L44.5163 1.824L44.8283 1.944L44.6843 1.56L44.9963 1.776V1.344L45.1883 1.608L45.2363 1.248L45.4043 1.512L45.4763 1.176L45.6203 1.44L45.7163 1.128L45.8123 1.392L45.9323 1.08L46.0043 1.368L46.1003 1.08L46.1723 1.344L46.2923 1.056L46.3643 1.32L46.4843 1.056L46.5323 1.32L46.6523 1.056L46.7003 1.32L46.8203 1.056L46.8683 1.32L46.9883 1.056L47.0363 1.32L47.1563 1.056L47.2043 1.32L47.3243 1.056L47.3963 1.32L47.5163 1.056L47.5643 1.32L47.6843 1.056L47.7323 1.32L47.8523 1.056L47.9243 1.32L48.0443 1.056L48.0923 1.32L48.2123 1.056L48.2603 1.32L48.3803 1.056L48.4283 1.32L48.5483 1.056L48.5963 1.32L48.7163 1.056L48.7643 1.32L48.8843 1.056L48.9323 1.32L49.0523 1.032L49.1003 1.296L49.2203 1.032L49.2683 1.296L49.4123 1.032L49.4603 1.296L49.5803 1.008L49.6283 1.296L49.7483 1.008L49.7963 1.272L49.9163 0.983999L49.9643 1.272L50.0843 0.983999L50.1323 1.272L50.2523 0.983999L50.3003 1.272L50.4203 0.983999L50.4683 1.272L50.5883 0.959999L50.6603 1.272L50.7803 0.959999L50.8283 1.272L50.9483 0.959999L50.9963 1.248L51.1163 0.959999L51.1643 1.248L51.2843 0.959999L51.3323 1.248L51.4523 0.935999L51.5003 1.248L51.6203 0.935999L51.6683 1.248L51.7883 0.912L51.8363 1.224L51.9563 0.912L52.0283 1.224L52.1483 0.887999L52.1963 1.2L52.3163 0.863999L52.3643 1.2L52.4843 0.863999L52.5323 1.2L52.6523 0.839999L52.7003 1.176L52.8203 0.816L52.8683 1.176L52.9883 0.816L53.0363 1.176L53.1563 0.816L53.2043 1.176L53.3483 0.816L53.3963 1.176L53.5163 0.816L53.5643 1.176L53.6843 0.816L53.7323 1.176L53.8523 0.816L53.9003 1.176L54.0203 0.839999L54.0683 1.2L54.1883 0.863999L54.2363 1.2L54.3563 0.887999L54.4043 1.224L54.5243 0.887999L54.5963 1.224L54.7163 0.912L54.7643 1.248L54.8843 0.935999L54.9323 1.272L55.0523 0.959999L55.1003 1.272L55.2203 0.983999L55.2683 1.296L55.3883 1.008L55.4363 1.296L55.5563 1.032L55.6043 1.32L55.7483 1.056L55.7963 1.32L55.9163 1.08L55.9643 1.344L56.0843 1.104L56.1563 1.344L56.2763 1.128L56.3243 1.368L56.4443 1.128L56.4923 1.368L56.6123 1.152L56.6603 1.368L56.7803 1.152L56.8283 1.368L56.9723 1.152L57.0203 1.392L57.1643 1.152L57.2123 1.392L57.3563 1.152L57.4043 1.392L57.5723 1.128L57.5963 1.392L57.7883 1.128L57.8123 1.392L57.9803 1.152L58.0043 1.416L58.2203 1.152V1.512L58.5323 1.224L58.4603 1.608L58.8923 1.392L58.7723 1.752L59.2043 1.584L58.9643 1.92L59.4203 1.872L59.1083 2.136L59.6123 2.184L59.2763 2.424L59.7323 2.52L59.3963 2.64L59.7803 2.76L59.4443 2.88L59.8043 3L59.4683 3.072L59.8043 3.216L59.4923 3.264L59.8283 3.408L59.5163 3.456L59.8283 3.576L59.5163 3.648L59.8523 3.768L59.5163 3.816L59.8523 3.96L59.5163 4.008L59.8523 4.128L59.5163 4.176L59.8523 4.32L59.5163 4.368L59.8283 4.536L59.4923 4.56L59.8043 4.728H59.4683L59.7803 4.944L59.4203 4.92L59.7323 5.16L59.3243 5.112L59.6603 5.424L59.2283 5.328L59.5163 5.688L59.1083 5.544L59.3483 5.952L58.9163 5.712L59.0363 6.24L58.7243 5.904V6.384L58.5323 6.072L58.5083 6.456L58.3403 6.12L58.2923 6.504L58.1483 6.168L58.0523 6.552L57.9563 6.216L57.8603 6.576L57.7643 6.24L57.6443 6.576L57.5483 6.264L57.4283 6.576L57.3563 6.264L57.2363 6.576L57.1883 6.264L57.0443 6.576L56.9963 6.264L56.8763 6.576L56.8283 6.264L56.6843 6.552L56.6363 6.264L56.5163 6.552L56.4683 6.264L56.3483 6.528L56.3003 6.264L56.1803 6.528L56.1323 6.264L56.0123 6.528L55.9643 6.24L55.8443 6.528L55.7723 6.288L55.6763 6.552L55.5803 6.312L55.5083 6.576L55.4363 6.384L55.4123 6.576L55.3643 6.552L55.3883 6.624L55.1243 6.432L55.1963 6.768L55.2203 6.792L55.0043 6.744L55.1723 6.912L54.9563 6.888L55.1483 7.032H54.9323L55.1243 7.152L54.9083 7.176L55.1243 7.296L54.8843 7.32L55.1243 7.44L54.8603 7.488L55.1243 7.608L54.8603 7.656L55.1243 7.8L54.8363 7.848L55.1483 7.992L54.8603 8.04L55.1483 8.16L54.8603 8.208L55.1483 8.328L54.8843 8.376L55.1723 8.496L54.8843 8.568L55.1723 8.688L54.8843 8.736L55.1963 8.856L54.8843 8.904L55.1963 9.024L54.8843 9.072L55.1963 9.216L54.9083 9.264L55.2203 9.384L54.9083 9.432L55.2443 9.576L54.9323 9.624L55.2443 9.744L54.9323 9.792L55.2683 9.912L54.9563 9.96L55.2923 10.08L54.9563 10.128L55.3163 10.248L54.9803 10.296L55.3403 10.416L54.9803 10.464L55.3643 10.584L55.0043 10.632L55.3883 10.752L55.0043 10.824L55.3883 10.944L55.0283 10.992L55.4123 11.112L55.0283 11.16L55.4363 11.28L55.0283 11.328L55.4363 11.448L55.0283 11.496L55.4363 11.616L55.0283 11.664L55.4363 11.784L55.0283 11.832L55.4123 11.952L55.0283 12L55.4123 12.12L55.0043 12.168L55.3883 12.288L55.0043 12.336L55.3643 12.456L54.9803 12.504L55.3403 12.624L54.9803 12.696L55.3163 12.816L54.9563 12.864L55.2923 12.984L54.9563 13.032L55.2683 13.152L54.9323 13.2L55.2443 13.32L54.9083 13.368L55.2203 13.488L54.9083 13.536L55.1963 13.656L54.8843 13.704L55.1723 13.824L54.8843 13.872L55.1483 13.992L54.8843 14.04L55.1483 14.16L54.8603 14.208L55.1483 14.352L54.8843 14.4L55.1483 14.496L54.8843 14.568L55.1723 14.664L54.8843 14.736L55.1723 14.832L54.8843 14.904L55.1963 15.024L54.9083 15.072L55.2203 15.192L54.9083 15.24L55.2443 15.36L54.9323 15.408L55.2443 15.552L54.9323 15.6L55.2683 15.72L54.9323 15.768L55.2683 15.912L54.9323 15.96L55.2683 16.104L54.9083 16.128L55.2683 16.296L54.8843 16.32L55.2443 16.512H54.8363L55.1963 16.728L54.7643 16.704L55.1483 16.968L54.6683 16.896L55.0283 17.256L54.5243 17.088L54.7883 17.592L54.3803 17.304L54.5243 17.784L54.1643 17.448L54.2123 18L53.8763 17.64L53.8523 18.12L53.6843 17.76L53.5883 18.144L53.4683 17.808L53.3723 18.144L53.2763 17.832L53.1563 18.144L53.0843 17.856L52.9643 18.144L52.8923 17.856L52.7723 18.144L52.7243 17.88L52.6043 18.144L52.5323 17.88L52.4123 18.168L52.3643 17.904L52.2443 18.168L52.1723 17.904L52.0523 18.192L52.0043 17.928L51.8603 18.216L51.8123 17.928L51.6923 18.264L51.6443 17.952L51.5243 18.288L51.4763 17.976L51.3323 18.336L51.2843 18L51.1643 18.36L51.1163 18.024L50.9723 18.408L50.9243 18.024L50.7803 18.432L50.7323 18L50.5643 18.456L50.5403 17.976L50.3003 18.456L50.3243 17.952L50.0603 18.432L50.1083 17.904L49.7963 18.384L49.9163 17.88L49.5803 18.312L49.7483 17.64L49.1723 18.12L49.5323 17.448L48.8123 17.76L49.2923 17.28L48.5963 17.4L49.1243 17.064L48.4763 17.088L49.0043 16.848L48.4043 16.8L48.9323 16.608L48.3563 16.536L48.8843 16.392L48.3563 16.296L48.8363 16.176L48.3563 16.056L48.8363 15.984L48.3563 15.84L48.8123 15.768L48.3803 15.648L48.8123 15.576L48.4043 15.432L48.8123 15.384L48.4283 15.24L48.8123 15.216L48.4523 15.072L48.8363 15.024L48.4523 14.904L48.6443 14.88L48.4763 14.832L48.8123 14.784L48.3803 14.64ZM47.2043 5.832L47.1563 5.856H47.2763H47.3243L47.2043 5.832ZM47.3723 5.832L47.3243 5.856H47.4683H47.5163L47.3723 5.832ZM47.0363 5.832L46.9883 5.856L47.1083 5.88L47.1563 5.856L47.0363 5.832ZM47.5403 5.832L47.5163 5.856H47.6363H47.7323L47.5403 5.832ZM46.8683 5.856L46.7963 5.88H46.9403L46.9883 5.856H46.8683ZM47.7803 5.88H47.8283H47.9483L47.7323 5.856L47.8523 5.88H47.8283H47.7803ZM46.5323 5.88H46.4123H46.4363H46.5803H46.6043H46.7483H46.7963L46.7003 5.856L46.6043 5.88H46.5323ZM48.0203 5.88H47.9723H47.9963H48.0203ZM59.8639 14.016L60.1999 13.968L59.8639 13.848L60.1999 13.8L59.8879 13.68L60.1999 13.632L59.8879 13.512L60.1999 13.464L59.8879 13.344L60.1999 13.296L59.8879 13.176L60.2239 13.128L59.9119 13.008L60.2239 12.96L59.9119 12.84L60.2239 12.792L59.9359 12.672L60.2239 12.624L59.9359 12.504L60.2239 12.456L59.9359 12.336L60.2239 12.288L59.9359 12.144L60.2239 12.096L59.9119 11.976L60.2239 11.928L59.9119 11.808L60.2239 11.76L59.8879 11.64L60.1999 11.592L59.8879 11.472L60.1999 11.424L59.8639 11.304L60.1999 11.256L59.8639 11.136L60.1759 11.088L59.8399 10.968L60.1759 10.92L59.8399 10.8L60.1759 10.752L59.8399 10.632L60.1759 10.584L59.8399 10.464L60.1759 10.416L59.8399 10.296L60.1759 10.224L59.8399 10.104L60.1999 10.056L59.8639 9.936L60.1999 9.888L59.8879 9.768L60.2239 9.72L59.9119 9.6L60.2239 9.552L59.9359 9.432L60.2479 9.384L59.9599 9.264L60.2719 9.216L59.9839 9.096L60.2719 9.048L60.0079 8.928L60.2959 8.88L60.0319 8.76L60.2959 8.712L60.0559 8.592L60.3199 8.544L60.0799 8.424L60.3439 8.352L60.1039 8.232L60.3439 8.16L60.1279 8.04L60.3679 7.992L60.1519 7.872L60.3679 7.8L60.1519 7.68L60.3679 7.632L60.1519 7.488L60.3919 7.44L60.1759 7.296L60.3919 7.248L60.1759 7.104L60.3919 7.056L60.1759 6.912L60.5119 6.864L60.2239 6.504H60.5599L60.3679 6.12L60.6799 6.192L60.5119 5.832L60.8239 5.976L60.7759 5.616L61.0159 5.856L61.1119 5.4L61.3279 5.664L61.4479 5.28L61.5679 5.544L61.6879 5.232L61.7839 5.496L61.9279 5.184L61.9999 5.472L62.1439 5.16L62.2159 5.448L62.3599 5.16L62.4079 5.424L62.5519 5.16L62.5999 5.424L62.7439 5.16L62.7919 5.424L62.9359 5.136L62.9839 5.4L63.1279 5.136L63.1759 5.4L63.3199 5.112L63.3679 5.4L63.5119 5.088L63.5599 5.376L63.6799 5.064L63.7519 5.352L63.8719 5.04L63.9199 5.352L64.0639 5.016L64.1119 5.352L64.2559 4.992L64.3039 5.352L64.4719 4.992L64.4959 5.352L64.6879 4.992V5.52L65.1199 5.04L65.0479 5.592L65.5519 5.208L65.3599 5.712L65.8879 5.4L65.6239 5.856L66.1279 5.64L65.8399 5.976L66.2479 5.832L66.0319 6.048L66.3439 5.928L66.2239 6.048V6.072L66.2959 6.024V5.976L66.3199 6.024L66.3919 6L66.3439 6.048L66.3919 6.192V5.976L66.5359 6.216L66.5119 5.952L66.6799 6.192L66.6559 5.904L66.8479 6.168L66.7999 5.856L67.0159 6.096L66.9919 5.784L67.1839 6.048V5.712L67.3759 5.976V5.64L67.5439 5.88L67.5679 5.592L67.7119 5.832L67.7359 5.544L67.8799 5.784L67.9279 5.496L68.0479 5.736L68.1199 5.448L68.2399 5.688L68.2879 5.4L68.4079 5.64L68.4799 5.352L68.5759 5.592L68.6479 5.328L68.7439 5.568L68.8399 5.28L68.9359 5.52L69.0079 5.256L69.1039 5.496L69.1999 5.208L69.2719 5.472L69.3919 5.184L69.4639 5.448L69.5599 5.16L69.6319 5.424L69.7519 5.112L69.8239 5.448L69.9679 5.112L70.0159 5.448L70.2079 5.112L70.2319 5.472L70.4719 5.136L70.4239 5.592L70.8319 5.256L70.6639 5.688L71.1679 5.472L70.9519 5.904L71.4559 5.712L71.1199 6.096L71.6719 6.072L71.3599 6.312H71.7919L71.4319 6.528L71.8639 6.576L71.5039 6.744L71.9119 6.84L71.5519 6.96L71.9359 7.08L71.5759 7.152L71.9599 7.296L71.6239 7.368L71.9599 7.488L71.6239 7.56L71.9599 7.704L71.6239 7.752L71.9599 7.896L71.6479 7.944L71.9599 8.064L71.6479 8.112L71.9599 8.256L71.6479 8.304L71.9599 8.424L71.6479 8.472L71.9599 8.616L71.6239 8.664L71.9599 8.808L71.6239 8.832L71.9599 9L71.5999 9.024L71.9359 9.192L71.5759 9.216L71.9119 9.408H71.5519L71.8639 9.624L71.3599 9.576L71.7199 10.056L71.2399 9.888L71.4319 10.392L71.0239 10.104L71.1199 10.704L70.7599 10.32L70.7119 10.872L70.5199 10.512L70.4719 10.944L70.3039 10.584L70.2319 10.992L70.0879 10.632L69.9919 11.016L69.8959 10.656L69.7519 11.04L69.6799 10.68L69.5599 11.04L69.4879 10.704L69.3439 11.04L69.2959 10.728L69.1759 11.016L69.1039 10.728L68.9839 11.016L68.9359 10.728L68.8159 11.016L68.7679 10.728L68.6479 11.016L68.5759 10.728L68.4799 11.016L68.4079 10.728L68.3119 11.016L68.2399 10.728L68.1439 11.016L68.0719 10.752L67.9759 11.016L67.9039 10.776L67.8319 11.04L67.7599 10.8L67.6879 11.064L67.5919 10.848L67.5439 11.088L67.4479 10.896L67.4239 11.136L67.3039 10.944V11.184L67.1839 11.016L67.2079 11.256L67.0879 11.088L67.1359 11.304L66.9919 11.184L67.0639 11.376L66.8959 11.256L67.0159 11.472L66.8479 11.376L66.9679 11.544L66.7759 11.472L66.9199 11.64L66.7039 11.592L66.8959 11.76L66.6559 11.712L66.8719 11.88L66.6079 11.856L66.8479 12H66.5839L66.8479 12.144H66.5599L66.8479 12.288L66.5359 12.312L66.8479 12.456L66.5359 12.48L66.8479 12.6L66.5119 12.648L66.8479 12.792L66.5359 12.816L66.8479 12.936L66.5359 12.984L66.8719 13.104L66.5359 13.152L66.8719 13.272L66.5359 13.32L66.8959 13.44L66.5359 13.488L66.8959 13.608L66.5359 13.656L66.9199 13.776L66.5599 13.824L66.9199 13.944L66.5599 13.992L66.9199 14.112L66.5599 14.16L66.9439 14.28L66.5599 14.328L66.9439 14.448L66.5839 14.496L66.9679 14.616L66.5839 14.664L66.9679 14.784L66.5839 14.832L66.9919 14.952L66.5839 15L66.9919 15.12L66.6079 15.168L66.9919 15.288L66.6079 15.336L67.0159 15.456L66.6079 15.504L67.0159 15.624L66.5839 15.696L67.0399 15.84L66.5839 15.888L67.0399 16.032L66.5599 16.08L67.0399 16.248L66.5359 16.296L67.0399 16.488H66.5359L67.0159 16.704H66.3199L66.9439 17.208L66.2479 17.064L66.7519 17.664L66.0799 17.376L66.4639 18.072L65.8879 17.616L66.0559 18.384L65.6959 17.928L65.8159 18.552L65.4799 18.024L65.5279 18.672L65.2639 18.12V18.744L65.0479 18.192L64.9759 18.816L64.8319 18.264L64.7359 18.84L64.6399 18.312L64.5199 18.864L64.4239 18.384L64.3279 18.888L64.2559 18.384L64.1359 18.888L64.0639 18.408L63.9439 18.912L63.8959 18.408L63.7759 18.912L63.7039 18.432L63.5839 18.936L63.5359 18.432L63.3919 18.936L63.3439 18.432L63.2239 18.936L63.1759 18.432L63.0319 18.96L62.9839 18.432L62.8399 18.96L62.7919 18.432L62.6479 18.96L62.6239 18.432L62.4799 18.96L62.4319 18.432L62.2879 18.96L62.2399 18.408L62.0719 18.96V18.384L61.8559 18.936V18.288L61.5919 18.912L61.6399 18.24L61.3039 18.864L61.3999 18.24L61.0879 18.792L61.2319 18L60.6559 18.648L60.9679 17.856L60.2479 18.312L60.6079 17.88L60.1279 18.168L60.6559 17.52L59.7919 17.76L60.4879 17.28L59.6239 17.232L60.2479 17.016L59.5759 16.944L60.1999 16.752L59.5519 16.656L60.1279 16.536L59.5519 16.392L60.0799 16.296L59.5519 16.176L60.0559 16.104L59.5759 16.008L60.0559 15.936L59.5999 15.816L60.0559 15.744L59.6239 15.648L60.0559 15.576L59.6479 15.456L60.0799 15.408L59.6719 15.288L60.0799 15.24L59.6959 15.12L60.1039 15.072L59.7199 14.952L60.1279 14.904L59.7679 14.784L60.1279 14.736L59.7919 14.616L60.1519 14.568L59.8159 14.448L60.1759 14.4L59.8399 14.28L60.0079 14.256L59.8639 14.208L60.2239 14.16L59.8639 14.016ZM73.2269 17.544L73.3469 17.304L72.9869 17.496L73.1549 17.208L72.7469 17.424L72.9629 17.112L72.5069 17.352L72.7949 16.992L72.2669 17.232L72.6509 16.824L72.0989 17.04L72.5069 16.632L71.9309 16.8L72.3869 16.44L71.8109 16.56L72.2429 16.272L71.7149 16.368L72.1229 16.104L71.6429 16.176L72.0749 15.912L71.5709 15.96L72.0029 15.744L71.5229 15.768L71.9549 15.552L71.4749 15.528L71.9069 15.36L71.4269 15.312L71.8829 15.144L71.4029 15.096L71.8589 14.952L71.3789 14.832L71.8589 14.736L71.3789 14.592L71.8589 14.52L71.4029 14.352L71.8589 14.28L71.4269 14.088L71.8829 14.064L71.4749 13.848H71.8829L71.5229 13.656H71.9309L71.5949 13.44L71.9789 13.488L71.6429 13.248L72.0509 13.296L71.7389 13.032L72.2189 13.128L71.8829 12.72L72.3389 12.936L72.1229 12.456L72.4109 12.696L72.2669 12.336L72.5549 12.552L72.4349 12.216L72.6989 12.432L72.5789 12.096L72.8189 12.312L72.7229 11.976L72.9629 12.216L72.8669 11.88L73.1069 12.096L73.0109 11.784L73.2509 12L73.1789 11.688L73.3949 11.904L73.3229 11.592L73.5389 11.808L73.4669 11.496L73.6829 11.712L73.6109 11.4L73.8269 11.64L73.7789 11.328L73.9709 11.544L73.9229 11.232L74.1149 11.448L74.0669 11.136L74.2589 11.352L74.2109 11.064L74.4029 11.28L74.3789 10.968L74.5709 11.184L74.5229 10.872L74.7149 11.088L74.6669 10.8L74.8589 11.016L74.8109 10.704L75.0029 10.92L74.9549 10.632L75.1469 10.848L75.1229 10.536L75.2909 10.752L75.2669 10.464L75.4589 10.68L75.4349 10.368L75.6029 10.584L75.5789 10.296L75.7949 10.56V10.176L75.9869 10.488L76.0349 10.128L76.1549 10.368L76.2269 10.08L76.3229 10.344L76.3949 10.056L76.4909 10.296L76.5629 10.008L76.6829 10.272L76.7309 9.984L76.8509 10.248L76.9469 9.936L77.0429 10.224L77.1389 9.912L77.2349 10.176L77.3309 9.888L77.4509 10.152L77.5229 9.84L77.6429 10.104L77.7149 9.816L77.8349 10.08L77.9309 9.768L78.0269 10.032L78.0989 9.744L78.1949 9.984L78.2669 9.72L78.3629 9.96L78.4109 9.696L78.5069 9.912L78.5549 9.648L78.6509 9.864L78.6989 9.6L78.8189 9.84L78.8429 9.552L78.9629 9.768L78.9869 9.504V9.528V9.504L79.0109 9.528L78.9869 9.456L79.0589 9.504H79.1309L79.0109 9.456H79.0589L79.1069 9.408V9.384H79.0829H79.0349L79.0829 9.36L79.0109 9.312L78.9389 9.336L79.1069 9.168L79.1309 9.096H79.1069L78.9149 9.336V9.264V9.288L78.8669 9.144L78.8189 9.168L78.8669 9.096L78.8429 8.976L78.7229 9.336L78.6269 9.096L78.5789 9.36L78.4589 9.12L78.4349 9.384L78.3149 9.144L78.2909 9.432L78.1469 9.192V9.504L77.9789 9.24V9.552L77.8109 9.288L77.7869 9.624L77.6189 9.336L77.5709 9.696L77.4269 9.384L77.3549 9.744L77.2349 9.456L77.1389 9.792L77.0429 9.48L76.9469 9.816L76.8509 9.504L76.7549 9.84L76.6829 9.528L76.5629 9.864L76.4909 9.552L76.3709 9.864L76.2989 9.576L76.1789 9.888L76.1309 9.576L76.0109 9.888L75.9629 9.576L75.8189 9.888L75.7709 9.576L75.6509 9.888L75.5789 9.576L75.4589 9.888L75.4109 9.576L75.2669 9.888L75.2189 9.576L75.0749 9.888L75.0269 9.576L74.9069 9.888L74.8589 9.552L74.6909 9.864L74.6669 9.528L74.4989 9.84L74.4509 9.504L74.2829 9.816L74.2589 9.48L74.0669 9.768V9.432L73.8509 9.72L73.8749 9.288L73.5149 9.6L73.6349 9.192L73.2269 9.36L73.3949 9.096L73.2029 9.168L73.1069 9.216L73.1309 9.168L73.0829 9.192L73.3229 8.88L72.8909 8.952L73.2269 8.688L72.9869 8.64L72.8189 8.616H72.8909L72.8189 8.592L73.1069 8.52L72.7949 8.4L73.1789 8.28L72.7949 8.016H73.2029L72.9149 7.68L73.2269 7.776L73.0109 7.464L73.3469 7.584L73.1549 7.248L73.4669 7.392L73.2989 7.032L73.5869 7.2L73.4429 6.864L73.7069 7.032L73.5869 6.696L73.8509 6.888L73.7309 6.552L73.9709 6.744L73.8749 6.408L74.1149 6.624L74.0189 6.288L74.2589 6.504L74.1869 6.168L74.4269 6.384L74.3549 6.048L74.5709 6.288L74.5229 5.928L74.7389 6.192L74.6909 5.832L74.8829 6.096L74.8589 5.736L75.0509 6L75.0269 5.664L75.1709 5.832L75.1229 5.616L75.3149 5.832L75.2669 5.496L75.5309 5.784L75.4829 5.376L75.6989 5.664V5.28L75.8669 5.568L75.8909 5.208L76.0589 5.496L76.0829 5.136L76.2269 5.448L76.2749 5.088L76.3949 5.4L76.4429 5.04L76.5629 5.352L76.6349 4.992L76.7549 5.304L76.8029 4.944L76.9229 5.28L76.9949 4.92L77.0909 5.232L77.1629 4.896L77.2829 5.232L77.3549 4.872L77.4509 5.208L77.5229 4.872L77.6189 5.184L77.7149 4.848L77.7869 5.184L77.8829 4.848L77.9789 5.184L78.0749 4.872L78.1469 5.16L78.2429 4.872L78.3149 5.184L78.4349 4.872L78.4829 5.184L78.6029 4.896L78.6749 5.184L78.7709 4.92L78.8429 5.184L78.9629 4.944L79.0109 5.208L79.1309 4.968L79.1789 5.208L79.2989 4.992L79.3709 5.232L79.4909 5.016L79.5389 5.256L79.6589 5.04L79.7069 5.256L79.8269 5.064L79.8749 5.28L80.0189 5.112L80.0429 5.304L80.1869 5.136L80.2349 5.352L80.3789 5.184L80.4029 5.376L80.5469 5.232L80.5709 5.4L80.7389 5.256L80.7629 5.448L80.9069 5.304L80.9309 5.472L81.0989 5.328V5.496L81.2669 5.376L81.2909 5.544L81.4349 5.4L81.4589 5.568L81.6269 5.424V5.616L81.7949 5.472V5.64L81.9869 5.52V5.688L82.1549 5.544V5.736L82.3469 5.592L82.3229 5.784L82.5149 5.64L82.4909 5.856L82.7069 5.712L82.6589 5.928L82.8749 5.784L82.8509 6L83.0429 5.856L82.9949 6.072L83.2349 5.952L83.1629 6.168L83.4029 6.048L83.3309 6.264L83.5709 6.168L83.4989 6.384L83.7629 6.288L83.6669 6.504L83.9309 6.432L83.8349 6.648L84.0989 6.576L84.0029 6.792L84.2909 6.744L84.1469 6.96L84.4589 6.936L84.3149 7.104H84.5789L84.4109 7.272H84.6989L84.5309 7.416L84.7949 7.44L84.6029 7.584L84.8909 7.608L84.6989 7.752L84.9869 7.776L84.7709 7.896L85.0829 7.944L84.8429 8.064L85.1549 8.112L84.9149 8.232L85.2509 8.256L84.9869 8.4L85.3229 8.424L85.0589 8.568L85.3949 8.592L85.1069 8.712L85.4429 8.76L85.1549 8.88L85.5149 8.928L85.2269 9.048L85.5629 9.096L85.2749 9.216L85.6109 9.264L85.2989 9.384L85.6589 9.432L85.3469 9.576L85.6829 9.624L85.3709 9.744L85.7309 9.792L85.4189 9.912L85.7549 9.96L85.4429 10.08L85.7789 10.128L85.4669 10.248L85.8029 10.32L85.4909 10.416L85.8029 10.488L85.5149 10.584L85.8269 10.656L85.5389 10.776L85.8269 10.848L85.5629 10.944L85.8509 11.016L85.5629 11.112L85.8509 11.208L85.5869 11.28L85.8749 11.376L85.5869 11.472L85.8749 11.568L85.5869 11.64L85.8749 11.76L85.5869 11.832L85.8749 11.952L85.5869 12L85.8749 12.144L85.6109 12.216L85.8509 12.336L85.6109 12.384L85.8509 12.504L85.6109 12.552L85.8749 12.672L85.6109 12.72L85.8749 12.864L85.6349 12.912L85.8749 13.032L85.6349 13.08L85.8989 13.2L85.6349 13.248L85.8989 13.392L85.6589 13.44L85.9229 13.56L85.6589 13.608L85.9469 13.728L85.6589 13.776L85.9469 13.896L85.6829 13.968L85.9709 14.088L85.6829 14.136L85.9709 14.256L85.6589 14.304L85.9949 14.448L85.6829 14.496L85.9949 14.616L85.6829 14.688L85.9949 14.808L85.6829 14.856L85.9949 14.976L85.6829 15.048L85.9949 15.168L85.6829 15.216L85.9949 15.336L85.6829 15.408L85.9949 15.528L85.6829 15.576L85.9949 15.72L85.6829 15.768L85.9949 15.888L85.6829 15.936L85.9949 16.08L85.6589 16.128L85.9949 16.272L85.6109 16.32L85.9709 16.536H85.5869L85.9229 16.776L85.5389 16.752L85.8749 17.04L85.4669 16.992L85.7789 17.304L85.3949 17.208L85.6589 17.544L85.2029 17.376L85.4429 17.904L85.0349 17.592L85.1309 18.144L84.8189 17.784L84.8429 18.336L84.5549 17.928L84.5069 18.48L84.3389 18.072L84.2669 18.552L84.1469 18.144L84.0509 18.6L83.9549 18.216L83.8349 18.624L83.7629 18.24L83.6429 18.672L83.5709 18.288L83.4749 18.696L83.4029 18.312L83.2829 18.72L83.2349 18.312L83.1149 18.744L83.0669 18.336L82.9469 18.768L82.8749 18.36L82.7549 18.792L82.7069 18.36L82.5869 18.816L82.5389 18.384L82.4189 18.816L82.3709 18.384L82.2509 18.84L82.2029 18.336L82.0349 18.84L81.9869 18.336L81.8189 18.864L81.7949 18.312L81.6029 18.864L81.5789 18.288L81.3389 18.84L81.3629 18.24L81.0989 18.816L81.1469 18.192L80.8109 18.744L80.9309 18.12L80.5229 18.648L80.6909 18.048L80.2589 18.528L80.4749 18L80.0669 18.432L80.2589 17.952L79.8989 18.312L80.0669 17.88L79.7549 18.24L79.8749 17.904L79.8509 17.928L79.7549 18.192V18.144L79.7309 18.072V18.144L79.7069 18.096L79.6589 18.168V18.144L79.5629 17.88L79.5869 18.144L79.4189 17.856L79.4669 18.168L79.2509 17.856L79.3229 18.216L79.0829 17.88L79.1549 18.264L78.9149 17.904L78.9629 18.336L78.7469 17.976L78.7709 18.384L78.5549 18.024L78.5789 18.456L78.3869 18.096V18.48L78.1949 18.144L78.1709 18.528L78.0029 18.168L77.9789 18.552L77.8349 18.24L77.8109 18.576L77.6429 18.24L77.5949 18.6L77.4509 18.264L77.3549 18.624L77.2589 18.288L77.1389 18.6L77.0669 18.312L76.9469 18.6L76.8749 18.312L76.7549 18.576L76.6829 18.288L76.5629 18.552L76.5149 18.288L76.3709 18.528L76.3469 18.264L76.2029 18.48L76.1549 18.24L76.0109 18.456L75.9869 18.216L75.8429 18.408L75.8189 18.192L75.6509 18.384L75.6269 18.168L75.4829 18.336L75.4589 18.12L75.2909 18.312V18.096L75.1229 18.264V18.048L74.9309 18.216V18L74.7629 18.168V17.952L74.5709 18.12L74.5949 17.904L74.4029 18.048L74.4269 17.832L74.2109 18L74.2589 17.76L74.0429 17.904L74.0909 17.688L73.8509 17.832L73.9229 17.592L73.6589 17.712L73.7549 17.496L73.4909 17.592L73.5389 17.52L73.4429 17.592L73.5389 17.376L73.2269 17.544ZM79.1789 9.288L79.2269 9.264L79.2509 9.24L79.2029 9.264L79.1789 9.288ZM79.0589 9.312H79.1069V9.288L79.0589 9.312ZM79.2509 9.432L79.2269 9.408H79.2029L79.2509 9.456L79.2749 9.432H79.2509ZM79.0589 9.456H79.1309V9.432L79.0589 9.456ZM79.2029 9.624L79.1789 9.576L79.1069 9.552L79.2029 9.624ZM79.1789 13.464L79.2029 13.416V13.344L79.0349 13.632L79.0109 13.416L78.9389 13.728L78.8909 13.512L78.8669 13.824L78.7709 13.536V13.824L78.6269 13.536L78.6509 13.824L78.5069 13.56L78.5309 13.824L78.3869 13.584L78.4349 13.824L78.2669 13.632L78.3389 13.824L78.1709 13.656L78.2429 13.848L78.0509 13.704L78.0749 13.752L78.1229 13.8H78.0989L78.1469 13.872L77.9549 13.776L77.8349 13.752L78.0509 13.968H77.9069L77.7629 14.04L78.0269 14.112L77.9789 14.16L77.9309 14.328L78.1229 14.232L78.0989 14.448L78.2909 14.328L78.3149 14.472L78.4349 14.328L78.5069 14.472L78.5789 14.328L78.6509 14.448L78.6989 14.304L78.7709 14.4L78.8189 14.256L78.8909 14.352L78.9149 14.184L79.0109 14.28V14.112L79.1069 14.184L79.0829 14.016L79.2029 14.088L79.1549 13.92L79.2749 13.968L79.2029 13.8L79.3469 13.872L79.2509 13.68L79.4189 13.728L79.2989 13.584H79.4669L79.3949 13.536H79.3709L79.3949 13.512L79.2749 13.44L79.1789 13.536L79.2029 13.464H79.1789ZM79.2749 13.44L79.4669 13.392V13.368H79.4189L79.2989 13.416L79.2749 13.44ZM79.6589 17.952V18.12L79.6829 18.024L79.6589 17.952ZM89.4526 17.544L89.5966 17.28L89.2126 17.544L89.4046 17.208L88.9966 17.52L89.2126 17.136L88.7566 17.496L89.0206 17.064L88.5166 17.448L88.8526 16.944L88.3486 17.304L88.7086 16.824L88.2046 17.16L88.5646 16.68L88.0606 16.992L88.4446 16.536L87.9166 16.824L88.3006 16.368L87.7726 16.656L88.1806 16.224L87.6526 16.464L88.0606 16.056L87.5326 16.272L87.9406 15.888L87.4126 16.08L87.7726 15.768L87.3406 15.936L87.7486 15.576L87.2206 15.744L87.6766 15.36L87.1006 15.504L87.5566 15.192L87.0286 15.288L87.4606 15.024L86.9566 15.072L87.3886 14.832L86.9086 14.88L87.3406 14.664H86.8846L87.2926 14.472H86.8606L87.2686 14.304L86.8366 14.28L87.2206 14.112L86.8366 14.088L87.2206 13.944L86.8366 13.896L87.1966 13.752L86.8606 13.704L87.1966 13.584L86.8606 13.512L87.1726 13.392L86.8846 13.32L87.1726 13.224L86.9086 13.152L87.1726 13.056L86.9326 12.96L87.1966 12.864L86.9566 12.792L87.1966 12.696L86.9806 12.6L87.1966 12.528L87.0046 12.432L87.2206 12.36L87.0286 12.24L87.2206 12.168L87.0766 12.048L87.2446 12L87.1006 11.856L87.2686 11.808L87.1486 11.664L87.2926 11.616L87.1966 11.496L87.3406 11.448L87.2446 11.328L87.3646 11.28L87.2926 11.136L87.4126 11.112L87.3406 10.968L87.4366 10.944L87.3646 10.8L87.4846 10.776L87.4126 10.632L87.5086 10.608L87.4366 10.464L87.5566 10.44L87.4846 10.296L87.5806 10.272L87.5086 10.128L87.6286 10.104L87.5566 9.96L87.6526 9.936L87.5806 9.792L87.7006 9.768L87.6286 9.624L87.7246 9.6L87.6526 9.432H87.7726L87.7006 9.264H87.8206L87.7246 9.096H87.8686L87.7726 8.928H87.8926L87.7966 8.76H87.9406L87.8446 8.568H87.9886L87.8686 8.4H88.0366L87.8926 8.208L88.0846 8.232L87.9406 8.04L88.1326 8.064L87.9646 7.848L88.1806 7.896L88.0126 7.632L88.2526 7.704L88.0846 7.44L88.3486 7.536L88.1566 7.224L88.4686 7.368L88.3006 6.984L88.5886 7.2L88.4686 6.792L88.7326 7.008L88.5886 6.624L88.8526 6.864L88.7326 6.48L88.9966 6.744L88.9006 6.336L89.1406 6.624L89.0446 6.216L89.2846 6.504L89.1886 6.096L89.4286 6.408L89.3566 6L89.5966 6.312L89.5006 5.904L89.7406 6.216L89.6686 5.808L89.9086 6.144L89.8366 5.736L90.0526 6.048L90.0046 5.64L90.2206 5.976L90.1726 5.568L90.3886 5.904L90.3406 5.496L90.5326 5.832L90.5086 5.448L90.7006 5.76L90.6766 5.376L90.8686 5.688L90.8446 5.304L91.0366 5.616L90.9886 5.232L91.1806 5.568L91.1566 5.16L91.3486 5.496L91.3246 5.088L91.5166 5.424L91.4926 4.992L91.6846 5.352L91.6606 4.92L91.8286 5.256L91.8046 4.824L92.0446 5.28L92.0686 4.704L92.2846 5.232L92.3806 4.608L92.5006 5.112L92.6206 4.536L92.6926 5.04L92.8606 4.512L92.8846 5.016L93.0526 4.464L93.0766 4.992L93.2686 4.416V4.968L93.4606 4.392V4.944L93.6526 4.368V4.944L93.8446 4.368L93.8206 4.944L94.0366 4.344L94.0126 4.944L94.2286 4.344L94.1806 4.968L94.4206 4.368L94.3726 4.992L94.5886 4.392L94.5406 5.016L94.7806 4.416L94.7086 5.04L94.9486 4.44L94.8766 5.088L95.1406 4.488L95.0446 5.112L95.3086 4.536L95.2366 5.16L95.4766 4.608L95.4046 5.208L95.6446 4.656L95.5726 5.256L95.8126 4.728L95.7406 5.304L95.9806 4.8L95.9086 5.376L96.1486 4.848L96.0766 5.424L96.3166 4.92L96.2206 5.472L96.4846 4.992L96.3886 5.544L96.6526 5.064L96.5566 5.592L96.8206 5.136L96.7246 5.664L96.9886 5.208L96.8926 5.712L97.1566 5.28L97.0606 5.784L97.3246 5.352L97.2286 5.832L97.4686 5.424L97.3726 5.904L97.6366 5.496L97.5406 5.976L97.8046 5.568L97.7086 6.024L97.9726 5.64L97.8766 6.096L98.1406 5.712L98.0446 6.192L98.3086 5.808L98.1886 6.264L98.4526 5.904L98.3566 6.336L98.6206 6L98.5246 6.432L98.7886 6.12L98.6686 6.528L98.9326 6.24L98.8126 6.624L99.1006 6.36L98.9806 6.744L99.2686 6.504L99.1246 6.888L99.4366 6.672L99.2686 7.032L99.6046 6.864L99.4126 7.176L99.7486 7.08L99.5806 7.344L99.8446 7.272L99.6766 7.488L99.9646 7.464L99.7966 7.656H100.037L99.8926 7.848H100.133L100.013 8.016L100.205 8.04L100.085 8.184L100.277 8.232L100.181 8.376L100.349 8.448L100.277 8.568L100.421 8.664L100.349 8.784L100.469 8.88L100.397 8.976L100.493 9.096L100.445 9.192L100.493 9.312L100.469 9.384V9.408L100.493 9.528L100.421 9.624L100.469 9.408H100.445L100.469 9.384L100.445 9.408L100.349 9.84L100.277 9.936L100.373 9.72L100.253 9.96L100.013 10.104L99.9886 10.128L99.8206 10.176L99.7966 10.2H99.6526L99.6046 10.224L99.7486 10.248L99.7966 10.2L99.9406 10.176L99.9886 10.128L100.133 10.08L99.9406 10.176H99.9646L99.7726 10.248H99.7246H99.7486L99.5806 10.296H99.5566L99.4126 10.32H99.3886H99.3646L99.1726 10.344H98.9806H98.8366H98.8126H98.7886H98.6686H98.6446H98.5966H98.4766H98.4526H98.4286H98.3086H98.2846H98.2366H98.1166H98.0926H98.0686H97.9486H97.9246H97.8766H97.7806H97.7326H97.7086H97.5886H97.5646H97.5406H97.4206H97.3966H97.3486H97.1806H97.0366H97.0606H96.8686H96.6766H96.7006H96.6526H96.6286L96.5086 10.32H96.5326H96.4846H96.4606H96.3166H96.2926L96.3406 10.296H96.2446H96.1246H96.1486L96.2926 10.32H96.3166H96.3406H96.2926L96.1486 10.296H96.1726H96.1246L96.0526 10.272L95.8846 10.248H95.8606L95.7166 10.224L95.6686 10.176L95.5486 10.152L95.5006 10.128L95.3806 10.08L95.3566 10.032L95.2126 10.008L95.1886 9.96L95.0686 9.912L95.0446 9.864L94.9246 9.84L94.9006 9.792L94.7806 9.744L94.7566 9.696L94.6126 9.672L94.5886 9.6L94.3486 9.552L94.3246 9.504L94.1326 9.552L94.0846 9.48L93.8926 9.552L93.8686 9.504L93.7726 9.624L93.6766 9.576L93.5086 9.744H93.4606L93.4126 9.936L93.3166 9.912V10.08H93.2446L93.2686 10.224H93.1726L93.2206 10.392H93.1246L93.1726 10.536L93.0766 10.56L93.1486 10.728L93.0526 10.752L93.1486 10.896L93.0286 10.944L93.1486 11.088L93.0286 11.136L93.1486 11.28L93.0286 11.328L93.1486 11.448L93.0286 11.496L93.1726 11.616L93.0286 11.664L93.1726 11.808L93.0286 11.856L93.1966 12L93.0526 12.048L93.2206 12.168L93.0526 12.24L93.2206 12.36L93.0766 12.408L93.2686 12.528L93.1006 12.576L93.2926 12.696L93.1486 12.768L93.3406 12.84L93.1966 12.936L93.3886 13.008L93.2446 13.08L93.4606 13.152L93.2686 13.272L93.5326 13.344L93.4126 13.464L93.6766 13.44L93.5806 13.608L93.7966 13.536L93.7486 13.68L93.9406 13.536V13.752L94.0846 13.584L94.1086 13.704L94.1806 13.512L94.2766 13.68L94.3246 13.44L94.4206 13.608V13.344L94.5646 13.536L94.5406 13.248L94.7086 13.464L94.6606 13.152L94.8526 13.368L94.8046 13.032L95.0206 13.272L94.9726 12.912L95.1886 13.176L95.1646 12.768L95.3806 13.104V12.648L95.5726 13.008L95.5966 12.552L95.7646 12.912L95.8126 12.48L95.9566 12.864L96.0286 12.432L96.1486 12.816L96.2206 12.384L96.3406 12.768L96.4366 12.36L96.5326 12.744L96.6526 12.36L96.7246 12.744L96.8446 12.36L96.9166 12.72L97.0366 12.36L97.0846 12.72L97.2286 12.384L97.2766 12.744L97.3966 12.408L97.4446 12.72L97.5646 12.408L97.6126 12.744L97.7326 12.432L97.8046 12.744L97.9246 12.456L97.9726 12.768L98.0926 12.48L98.1406 12.768L98.2606 12.504L98.3086 12.792L98.4286 12.528L98.4766 12.792L98.5966 12.528L98.6446 12.816L98.7646 12.552L98.8126 12.864L98.9806 12.576L99.0286 12.888L99.2206 12.6L99.2686 12.936L99.4846 12.648V12.96L99.7486 12.72L99.7246 13.032L100.013 12.792L99.9406 13.152L100.325 12.96L100.181 13.272L100.565 13.176L100.397 13.392L100.589 13.368L100.685 13.296L100.661 13.344H100.685L100.589 13.464L100.781 13.392L100.541 13.704L100.949 13.68L100.613 13.824L101.021 13.968L100.613 14.088L101.045 14.352L100.637 14.4L100.997 14.712L100.589 14.664L100.901 15L100.541 14.904L100.805 15.24L100.445 15.12L100.709 15.432L100.349 15.312L100.589 15.624L100.253 15.48L100.469 15.792L100.157 15.648L100.373 15.96L100.061 15.792L100.229 16.128L99.9406 15.936L100.109 16.272L99.8206 16.08L99.9886 16.416L99.7006 16.224L99.8446 16.56L99.5566 16.368L99.7006 16.704L99.4366 16.488L99.5806 16.848L99.2926 16.632L99.4366 16.992L99.1726 16.752L99.2926 17.112L99.0286 16.872L99.1486 17.256L98.8846 16.992L98.9806 17.376L98.7886 17.136L98.8846 17.448L98.5966 17.184L98.7166 17.592L98.4046 17.256L98.5006 17.736L98.2366 17.4L98.3086 17.856L98.0686 17.496L98.1166 17.928L97.9006 17.592L97.9246 18.024L97.7326 17.664V18.072L97.5646 17.736V18.12L97.3726 17.784V18.168L97.2046 17.832L97.1806 18.216L97.0366 17.88L97.0126 18.24L96.8686 17.928L96.8206 18.264L96.6766 17.952L96.6526 18.312L96.5086 18L96.4606 18.336L96.3406 18.024L96.2926 18.336L96.1486 18.048L96.1006 18.36L95.9806 18.072L95.9326 18.384L95.8126 18.096L95.7406 18.408L95.6446 18.12L95.5726 18.408L95.4526 18.144L95.3806 18.432L95.2846 18.168L95.2126 18.432L95.1166 18.192L95.0206 18.456L94.9486 18.216L94.8526 18.456L94.7566 18.216L94.6846 18.48L94.5886 18.24L94.4926 18.504L94.4206 18.264L94.3006 18.504L94.2286 18.264L94.1326 18.528L94.0606 18.288L93.9166 18.552L93.8686 18.288L93.7246 18.552L93.6766 18.288L93.5326 18.552L93.5086 18.312L93.3646 18.552L93.3166 18.288L93.1726 18.552L93.1486 18.288L93.0046 18.552L92.9806 18.288L92.8126 18.552L92.7886 18.264L92.6446 18.528L92.6206 18.264L92.4526 18.528V18.24L92.2846 18.504L92.2606 18.216L92.0926 18.48V18.192L91.9246 18.456V18.144L91.7326 18.408L91.7566 18.096L91.5646 18.36V18.072L91.3726 18.312L91.3966 18L91.1806 18.264L91.2286 17.952L90.9886 18.192L91.0366 17.904L90.8206 18.12L90.8926 17.832L90.6526 18.048L90.7006 17.76L90.4606 17.976L90.5326 17.688L90.2926 17.88L90.3646 17.592L90.1246 17.808L90.1966 17.52L89.9566 17.712L90.0526 17.424L89.7886 17.64L89.8606 17.424L89.6926 17.568L89.7886 17.328L89.4526 17.544ZM100.325 9.936L100.157 10.104L100.253 10.008V9.96L100.325 9.936ZM98.5486 10.224L98.5006 10.272L98.6206 10.32L98.6686 10.272L98.5486 10.224ZM99.4606 10.224L99.4366 10.248L99.5566 10.296L99.6046 10.224H99.4606ZM98.7166 10.224L98.6686 10.272L98.7886 10.32L98.8366 10.272L98.7166 10.224ZM98.3566 10.224L98.3086 10.272L98.4286 10.32L98.5006 10.272L98.3566 10.224ZM98.8846 10.224L98.8366 10.272L98.9806 10.32L99.0526 10.272L98.8846 10.224ZM98.1886 10.224L98.1406 10.272L98.2606 10.32L98.3086 10.272L98.1886 10.224ZM99.0766 10.224L99.0526 10.272L99.1726 10.32L99.2446 10.272L99.0766 10.224ZM99.2686 10.224L99.2446 10.272L99.3646 10.32L99.4366 10.248L99.2686 10.224ZM97.9966 10.248L97.9486 10.296L98.0926 10.32L98.1406 10.272L97.9966 10.248ZM97.8286 10.248L97.7806 10.296L97.9006 10.344L97.9486 10.296L97.8286 10.248ZM97.6606 10.248L97.5886 10.296L97.7326 10.344L97.7806 10.296L97.6606 10.248ZM97.4686 10.248L97.4206 10.296L97.5406 10.344L97.5886 10.296L97.4686 10.248ZM97.3006 10.272L97.2286 10.296L97.3726 10.344L97.4206 10.296L97.3006 10.272ZM97.1086 10.272L97.0606 10.296L97.1806 10.344L97.2286 10.296L97.1086 10.272ZM96.9406 10.272L96.8686 10.32L97.0126 10.344L97.0606 10.296L96.9406 10.272ZM96.7486 10.296L96.7006 10.32L96.8206 10.344L96.8686 10.32L96.7486 10.296ZM96.5806 10.296L96.5086 10.32H96.6526H96.7006L96.5806 10.296ZM96.4126 10.296H96.3406L96.4606 10.32H96.5086L96.4126 10.296ZM102.15 14.76L102.342 14.712L102.03 14.592L102.27 14.544L101.886 14.424L102.198 14.376L101.766 14.256L102.126 14.208L101.646 14.088L102.102 14.04L101.646 13.896L102.102 13.848L101.67 13.728L102.126 13.68L101.718 13.56L102.15 13.512L101.742 13.392L102.174 13.344L101.766 13.224L102.174 13.176L101.814 13.056L102.198 13.008L101.838 12.888L102.222 12.84L101.862 12.72L102.246 12.648L101.91 12.528L102.27 12.48L101.934 12.36L102.27 12.312L101.982 12.192L102.294 12.144L102.006 12.024L102.318 11.976L102.03 11.856L102.342 11.808L102.078 11.688L102.366 11.64L102.102 11.52L102.366 11.448L102.126 11.328L102.39 11.28L102.15 11.16L102.39 11.112L102.174 10.992L102.414 10.944L102.174 10.824L102.414 10.776L102.198 10.656L102.438 10.608L102.222 10.488L102.438 10.44L102.246 10.32L102.438 10.272L102.246 10.152L102.462 10.08L102.27 9.96L102.462 9.912L102.294 9.792L102.486 9.744L102.318 9.624L102.51 9.576L102.366 9.456L102.534 9.408L102.39 9.288L102.534 9.24L102.414 9.12L102.558 9.048L102.462 8.952L102.582 8.88L102.486 8.784L102.606 8.712L102.534 8.592L102.63 8.544L102.582 8.424L102.654 8.376L102.606 8.256L102.678 8.184L102.654 8.088L102.702 8.016L102.678 7.92L102.726 7.8V7.752V7.632V6.12V5.88V5.76V5.52V5.4V5.232V5.064V4.824L102.75 4.848L102.726 4.992L102.75 5.04L102.726 5.184L102.774 5.232L102.75 5.352L102.798 5.4L102.75 5.544L102.798 5.592L102.75 5.712L102.822 5.76L102.75 5.904L102.822 5.952L102.75 6.072L102.822 6.12L102.75 6.264L102.822 6.312L102.75 6.456L102.822 6.504L102.75 6.624L102.822 6.672L102.75 6.792L102.798 6.84L102.75 6.96L102.798 7.008L102.75 7.128L102.774 7.2L102.75 7.32L102.774 7.368L102.726 7.488L102.75 7.56L102.726 7.704V7.872L102.75 7.584V7.56L102.774 7.392V7.368L102.798 7.224L102.774 7.2L102.822 7.056L102.798 7.008L102.846 6.888L102.798 6.84L102.87 6.72L102.822 6.672L102.894 6.552L102.822 6.504L102.894 6.384L102.822 6.312L102.894 6.192L102.822 6.12L102.894 6L102.822 5.952L102.894 5.832L102.822 5.76L102.87 5.64L102.798 5.592L102.846 5.472L102.798 5.4L102.822 5.28L102.774 5.232L102.798 5.112L102.75 5.04L102.774 4.944L102.75 4.848V4.752L102.726 4.632V4.872V4.704L102.702 4.392L102.678 4.224V4.2L102.654 4.056L102.678 4.008L102.63 3.864L102.654 3.816L102.606 3.696L102.654 3.648L102.606 3.504L102.654 3.456L102.582 3.312L102.63 3.264L102.558 3.144L102.63 3.096L102.558 2.952L102.63 2.904L102.534 2.76L102.606 2.736L102.534 2.592L102.606 2.544L102.51 2.4L102.63 2.352L102.51 2.16L102.654 2.136L102.558 1.944H102.702L102.606 1.752L102.774 1.776L102.702 1.56L102.87 1.584L102.798 1.368L102.99 1.44L102.966 1.176L103.134 1.296L103.158 1.032L103.326 1.2L103.398 0.887999L103.542 1.104L103.662 0.816L103.758 1.032L103.902 0.767999L103.974 0.983999L104.118 0.743999L104.19 0.959999L104.31 0.719999L104.382 0.935999L104.502 0.696L104.55 0.912L104.694 0.696L104.742 0.912L104.862 0.696L104.91 0.912L105.054 0.696L105.102 0.912L105.222 0.696L105.27 0.912L105.414 0.696L105.462 0.912L105.582 0.696L105.63 0.912L105.774 0.696L105.822 0.912L105.942 0.719999L105.99 0.935999L106.134 0.719999L106.182 0.935999L106.35 0.719999L106.398 0.959999L106.566 0.719999L106.59 0.983999L106.806 0.743999V1.032L107.094 0.816L107.046 1.128L107.382 0.959999L107.286 1.272L107.718 1.152L107.526 1.464H107.934L107.694 1.704L108.15 1.752L107.838 1.968L108.246 2.112L108.006 2.208L108.294 2.304L108.054 2.4L108.342 2.496L108.078 2.592L108.39 2.688L108.102 2.76L108.414 2.88L108.126 2.928L108.438 3.072L108.15 3.12L108.462 3.24L108.15 3.288L108.462 3.432L108.174 3.48L108.486 3.6L108.174 3.648L108.486 3.768L108.174 3.816L108.486 3.936L108.174 3.984L108.486 4.104L108.174 4.176L108.486 4.296L108.174 4.344L108.462 4.464L108.174 4.512L108.462 4.632L108.15 4.68L108.462 4.8L108.15 4.848L108.438 4.968L108.15 5.016L108.438 5.136L108.15 5.208L108.438 5.328L108.15 5.376L108.438 5.496L108.15 5.544L108.462 5.664L108.174 5.712L108.462 5.832L108.174 5.88L108.486 6L108.198 6.048L108.51 6.168L108.198 6.216L108.534 6.36L108.222 6.408L108.558 6.528L108.222 6.576L108.582 6.696L108.246 6.744L108.63 6.864L108.27 6.912L108.582 7.008L108.51 6.936L108.918 7.128L108.558 6.744L109.014 6.96L108.63 6.576L109.086 6.792L108.702 6.408L109.206 6.648L108.798 6.192L109.326 6.456L108.894 5.976L109.47 6.288L109.014 5.712L109.638 6.12L109.182 5.472L109.758 5.904L109.374 5.232L109.926 5.736L109.566 5.04L110.142 5.64L109.854 4.8L110.358 5.52L110.166 4.608L110.574 5.376L110.502 4.464L110.814 5.256L110.79 4.392L111.03 5.16L111.078 4.32L111.246 5.088L111.342 4.272L111.462 5.04L111.606 4.248L111.678 4.992L111.822 4.248L111.894 4.944L112.038 4.224L112.086 4.896L112.206 4.224L112.278 4.896L112.398 4.224L112.446 4.872L112.566 4.224L112.638 4.872L112.758 4.224L112.806 4.872L112.926 4.224L112.974 4.872L113.094 4.248L113.142 4.896L113.286 4.248L113.334 4.896L113.454 4.248L113.502 4.896L113.622 4.272L113.67 4.896L113.79 4.272L113.862 4.968L114.006 4.296L114.078 4.992L114.222 4.32L114.27 5.04L114.462 4.32L114.51 5.088L114.75 4.368L114.726 5.112L115.014 4.416L114.942 5.424L115.59 4.536L115.326 5.568L116.19 4.944L115.734 5.544L116.046 5.352L116.31 5.088L116.19 5.256L116.382 5.136L116.214 5.352L116.382 5.208L115.71 6.144H115.734L116.814 6.24L116.118 6.288L116.79 6.528L115.95 6.552L116.742 6.96L115.854 6.888L116.574 7.44L115.902 7.2L116.43 7.704L115.854 7.44L116.286 7.896L115.782 7.632L116.166 8.04L115.662 7.776L116.046 8.208L115.59 7.968L115.926 8.328L115.494 8.088L115.83 8.448L115.398 8.232L115.71 8.592L115.278 8.352L115.614 8.712L115.182 8.472L115.494 8.832L115.062 8.616L115.374 8.976L114.966 8.736L115.254 9.096L114.846 8.88L115.134 9.216L114.726 9L114.99 9.336L114.63 9.12L114.87 9.456L114.51 9.264L114.75 9.576L114.39 9.384L114.606 9.696L114.27 9.504L114.486 9.792L114.15 9.624L114.342 9.912L114.03 9.768L114.222 10.032L113.91 9.888L114.078 10.152L113.814 10.032L113.958 10.272L113.694 10.152L113.838 10.368L113.598 10.272L113.742 10.488L113.502 10.392L113.646 10.584L113.43 10.512L113.55 10.704L113.358 10.656L113.478 10.8L113.286 10.776L113.43 10.92H113.238L113.382 11.016L113.214 11.04L113.358 11.136L113.166 11.16L113.334 11.28L113.19 11.328L113.358 11.4L113.214 11.472L113.406 11.52L113.238 11.616L113.454 11.664L113.31 11.784L113.502 11.808L113.382 11.928L113.598 11.952L113.454 12.072L113.67 12.096L113.55 12.24H113.766L113.646 12.384H113.862L113.742 12.528H113.958L113.838 12.696L114.054 12.672L113.934 12.84H114.15L114.03 12.984H114.246L114.126 13.128L114.342 13.152L114.222 13.296H114.414L114.294 13.44L114.486 13.464L114.366 13.584L114.558 13.632L114.438 13.752L114.606 13.776L114.534 13.896L114.678 13.944L114.606 14.04L114.75 14.088L114.678 14.184L114.846 14.232L114.774 14.328L114.918 14.376L114.846 14.472L114.99 14.52L114.942 14.616L115.086 14.664L115.014 14.76L115.182 14.808L115.11 14.904L115.254 14.952L115.206 15.048L115.35 15.072L115.302 15.168L115.446 15.216L115.398 15.312L115.566 15.36L115.494 15.456L115.662 15.504L115.59 15.6L115.734 15.648L115.686 15.768L115.83 15.816L115.782 15.912L115.902 15.96L115.854 16.056L115.974 16.128L115.926 16.224L116.046 16.296L115.998 16.392L116.094 16.464L116.046 16.584L116.19 16.8L116.118 16.92L116.142 17.04L116.07 17.112V17.208L116.022 17.304V17.328V17.304L116.118 17.256L116.022 17.328L115.998 17.448V17.352L115.926 17.4L115.758 17.52L115.782 17.448L115.926 17.4L115.974 17.328L115.998 17.304L116.022 17.256V17.232V17.208L116.046 17.088L116.022 17.256L115.974 17.304V17.328L115.806 17.4L115.782 17.448L115.566 17.568L115.542 17.592H115.71L115.494 17.712L115.518 17.688L115.326 17.736V17.712L115.23 17.736H115.206H115.158L115.014 17.76H114.774H114.582H114.366H114.222H114.054H114.006H113.982H113.862H113.814H113.694H113.646H113.622H113.478H113.454H113.478H113.406H113.286H113.31H113.454H113.478H113.526L113.238 17.784L113.07 17.808H113.022L112.878 17.832L112.854 17.808L112.71 17.856L112.662 17.832L112.542 17.88L112.494 17.832L112.374 17.904L112.326 17.856L112.182 17.904L112.158 17.856L112.014 17.904L111.966 17.832L111.846 17.904L111.798 17.832L111.654 17.904L111.63 17.808L111.486 17.856L111.462 17.76L111.318 17.832L111.294 17.736L111.126 17.784V17.664L110.958 17.712V17.592L110.742 17.616L110.766 17.472L110.574 17.496L110.598 17.352H110.406L110.454 17.232H110.238L110.31 17.088L110.094 17.064L110.166 16.944L109.95 16.92L110.046 16.8L109.806 16.776L109.926 16.656L109.686 16.632L109.782 16.488H109.542L109.686 16.344H109.422L109.566 16.2L109.302 16.224L109.446 16.08H109.182L109.35 15.936H109.062L109.23 15.792H108.942L109.134 15.648L108.846 15.672L109.038 15.504L108.726 15.528L108.918 15.36L108.63 15.384L108.822 15.216L108.51 15.264L108.726 15.072L108.462 15.144L108.558 15.192L108.27 15.216L108.582 15.336L108.246 15.36L108.582 15.504L108.246 15.528L108.606 15.672L108.222 15.72L108.63 15.864L108.222 15.912L108.654 16.056L108.222 16.104L108.654 16.272L108.198 16.32L108.654 16.512H108.174L108.63 16.776L108.126 16.752L108.606 17.04L107.958 16.944L108.486 17.472L107.814 17.28L108.246 17.904L107.718 17.544L108.006 18.168L107.55 17.736L107.742 18.384L107.358 17.904L107.454 18.552L107.142 18.024L107.19 18.696L106.926 18.12L106.902 18.768L106.71 18.216L106.638 18.84L106.494 18.288L106.398 18.888L106.278 18.36L106.182 18.912L106.11 18.384L105.99 18.936L105.918 18.408L105.798 18.936L105.726 18.432L105.606 18.96L105.558 18.432L105.414 18.96L105.366 18.432L105.246 18.96L105.198 18.456L105.054 18.96L105.006 18.456L104.886 18.96L104.838 18.456L104.694 18.936L104.67 18.432L104.526 18.936L104.478 18.408L104.358 18.912L104.31 18.336L104.118 18.888L104.094 18.288L103.854 18.84V18.216L103.566 18.768L103.638 18.144L103.278 18.672L103.398 18.096L103.038 18.528L103.23 17.832L102.582 18.288L102.942 17.664L102.294 17.88L102.774 17.424H102.03L102.582 17.088L101.934 16.92L102.342 16.752L101.934 16.68L102.318 16.56L101.934 16.464L102.318 16.368L101.958 16.272L102.318 16.176L102.006 16.056L102.318 16.008L102.03 15.864L102.342 15.816L102.078 15.696L102.366 15.648L102.126 15.528L102.39 15.48L102.15 15.336L102.414 15.288L102.198 15.192L102.438 15.12L102.246 15.024L102.366 14.976L102.27 14.952L102.438 14.904L102.15 14.76ZM108.438 7.104L108.846 7.272L108.606 7.032L108.27 7.08L108.486 7.152L108.438 7.104ZM108.702 7.416H108.678L108.75 7.44L108.558 7.224L108.27 7.272L108.414 7.32L108.366 7.248L108.654 7.392L108.702 7.416ZM108.63 7.56L108.51 7.416L108.366 7.44L108.534 7.536L108.63 7.56ZM108.342 7.464L108.318 7.44L108.294 7.464H108.342ZM108.678 7.584H108.654H108.678ZM108.39 7.656L108.534 7.704L108.462 7.608L108.342 7.632L108.39 7.656ZM108.438 7.824L108.414 7.8H108.342L108.438 7.824ZM108.414 14.928L108.438 14.88L108.366 14.856H108.342L108.318 14.88L108.414 14.928ZM108.318 14.856H108.294H108.318ZM108.558 15L108.606 14.952L108.51 14.976L108.558 15ZM108.318 15.024H108.222L108.438 15.12L108.534 15L108.342 15.024H108.318ZM116.022 17.304V17.232V17.208V17.232V17.304ZM115.422 17.568L115.398 17.616L115.518 17.664L115.542 17.592L115.422 17.568ZM115.254 17.592L115.23 17.64L115.35 17.688L115.398 17.616L115.254 17.592ZM115.086 17.592L115.038 17.664L115.182 17.712L115.23 17.64L115.086 17.592ZM114.894 17.592L114.846 17.664L114.99 17.736L115.038 17.664L114.894 17.592ZM114.702 17.616L114.63 17.688L114.798 17.76L114.846 17.664L114.702 17.616ZM114.486 17.616L114.438 17.688L114.582 17.76L114.63 17.688L114.486 17.616ZM114.27 17.616L114.222 17.688L114.366 17.76L114.438 17.688L114.27 17.616ZM114.102 17.64L114.03 17.712L114.174 17.736L114.222 17.688L114.102 17.64ZM113.934 17.664L113.862 17.712L113.982 17.736L114.03 17.712L113.934 17.664ZM113.742 17.688L113.67 17.736L113.814 17.76L113.862 17.712L113.742 17.688ZM113.574 17.712L113.478 17.76H113.646L113.67 17.736L113.574 17.712Z" fill="#3259D6"/>
</svg>
