<svg width="24" height="24" viewBox="0 0 24 24" fill="none" xmlns="http://www.w3.org/2000/svg">
<g clip-path="url(#clip0_111_2738)">
<path d="M19 0H5C2.24 0 0 2.24 0 5V19C0 21.76 2.24 24 5 24H16.34C17.68 24 18.93 23.48 19.88 22.54L22.54 19.88C23.48 18.94 24 17.68 24 16.34V5C24 2.24 21.76 0 19 0ZM5 22C3.35 22 2 20.65 2 19V5C2 3.35 3.35 2 5 2H19C20.65 2 22 3.35 22 5V15H18C16.35 15 15 16.35 15 18V22H5ZM18.46 21.12C18.06 21.52 17.55 21.8 17 21.92V17.99C17 17.44 17.45 16.99 18 16.99H21.93C21.81 17.54 21.53 18.05 21.13 18.45L18.47 21.11L18.46 21.12Z" />
<path d="M5.7998 7.2002H19.3998" stroke="#BBBEC2" stroke-width="2" stroke-linecap="round"/>
<path d="M5.7998 12H19.3998" stroke="#BBBEC2" stroke-width="2" stroke-linecap="round"/>
<path d="M5.7998 16.7998H12.9998" stroke="#BBBEC2" stroke-width="2" stroke-linecap="round"/>
</g>
<defs>
<clipPath id="clip0_111_2738">
<rect width="24" height="24" fill="white"/>
</clipPath>
</defs>
</svg>
